<svg width="283" height="354" viewBox="0 0 283 354" fill="none" xmlns="http://www.w3.org/2000/svg">
<g clip-path="url(#clip0_466_190)">
<path opacity="0.1" d="M38.751 142L25.3939 149.59L24 150.015L44.4233 192.438L121.716 353H216L38.751 142Z" fill="#D9D9D9"/>
<path d="M32.5 156C26.701 156 22 151.747 22 146.5C22 141.253 26.701 137 32.5 137C38.299 137 43 141.253 43 146.5C43 151.747 38.299 156 32.5 156Z" fill="#E6E6E6"/>
<path d="M33.6961 141.089C33.0355 141.089 32.4999 140.605 32.4999 140.007C32.4999 139.409 33.0355 138.925 33.6961 138.925C34.3568 138.925 34.8923 139.409 34.8923 140.007C34.8923 140.605 34.3568 141.089 33.6961 141.089Z" fill="#CBCBCB"/>
<path d="M31.5697 151.912C30.909 151.912 30.3735 151.427 30.3735 150.829C30.3735 150.232 30.909 149.747 31.5697 149.747C32.2303 149.747 32.7659 150.232 32.7659 150.829C32.7659 151.427 32.2303 151.912 31.5697 151.912Z" fill="#CBCBCB"/>
<path d="M26.8514 145.658C26.3743 145.658 25.9875 145.308 25.9875 144.876C25.9875 144.445 26.3743 144.095 26.8514 144.095C27.3285 144.095 27.7153 144.445 27.7153 144.876C27.7153 145.308 27.3285 145.658 26.8514 145.658Z" fill="#CBCBCB"/>
<path d="M36.6867 149.747C35.1819 149.747 33.962 148.643 33.962 147.282C33.962 145.92 35.1819 144.816 36.6867 144.816C38.1915 144.816 39.4114 145.92 39.4114 147.282C39.4114 148.643 38.1915 149.747 36.6867 149.747Z" fill="#CBCBCB"/>
<path opacity="0.8" d="M22.619 242.987L38.5082 235.002L54.3975 227.016L63.3673 222.508C63.8636 222.259 63.7157 221.146 63.2194 221.395L47.3302 229.38L31.4409 237.366L22.4711 241.873C21.9749 242.123 22.1227 243.236 22.619 242.987Z" fill="url(#paint0_linear_466_190)"/>
<path d="M250.674 167.987C254.522 167.987 257.641 164.868 257.641 161.02C257.641 157.171 254.522 154.052 250.674 154.052C246.825 154.052 243.706 157.171 243.706 161.02C243.706 164.868 246.825 167.987 250.674 167.987Z" fill="#6C63FF"/>
<path d="M250.346 156.836C250.938 156.809 251.576 157.346 251.48 157.97C251.408 158.438 250.539 159.009 249.785 158.543C249.062 158.096 249.261 156.885 250.346 156.836Z" fill="white"/>
<path d="M247.391 157.549C247.65 157.526 247.767 157.828 247.633 158.072C247.547 158.228 246.802 158.648 246.716 158.301C246.646 158.022 247.16 157.57 247.391 157.549Z" fill="white"/>
<path d="M254.552 157.831C255.221 157.667 255.791 159.501 254.806 158.952C254.263 158.649 254.3 157.892 254.552 157.831Z" fill="white"/>
<path d="M258.646 160.439C255.807 163.44 252.276 166.525 248.61 168.452C241.827 172.018 238.25 170.53 243.553 163.823C241.674 158.479 245.001 153.719 250.702 154.051C249.966 154.134 250.369 153.945 249.777 154.215C247.711 155.156 246.357 154.945 244.876 157.133C244.653 157.461 244.26 158.104 244.253 158.494C243.993 158.868 243.808 159.677 243.787 160.206C243.682 162.763 244.705 165.109 246.393 166.974C249.994 165.974 256.206 160.891 257.946 157.716C259.114 155.585 258.541 154.556 256.079 155.304C256.032 155.259 255.567 155.309 255.768 154.837C256.278 154.8 258.181 153.742 259.385 154.448C260.84 155.302 259.018 157.757 258.335 158.65C256.024 161.669 250.483 166.238 246.976 167.674C245.551 168.258 242.184 169.483 242.775 166.624C242.964 165.711 244.23 164.287 243.67 164.251C243.479 164.239 241.975 166.898 241.92 167.635C241.707 170.474 245.898 168.645 247.21 168.063C251.236 166.278 255.715 162.608 258.49 159.194C262.137 154.708 261.708 152.119 255.456 154.682H255.067C255.068 154.639 254.857 154.535 254.834 154.526C263.298 150.697 263.857 154.594 258.646 160.439Z" fill="#FFFEFF"/>
<g opacity="0.17">
<path d="M-0.995773 217.14C1.1944 216.185 -3.24724 215.629 -8.2865 215.446C-13.3258 215.264 -19.4218 215.274 -22.6422 214.754C-25.7567 214.251 -25.5272 213.357 -25.7892 212.547C-26.0512 211.737 -27.2486 210.907 -32.1085 210.727C-38.1646 210.502 -48.1515 211.366 -52.7232 210.847C-56.9895 210.363 -54.4535 208.846 -60.6744 208.788C-64.2268 208.754 -68.8032 209.255 -72.7559 209.376C-76.4668 209.489 -79.2121 209.254 -81.1387 208.938C-83.0653 208.623 -84.4072 208.223 -86.5755 207.944C-92.2681 207.212 -103.406 207.458 -113.346 208.396C-123.287 209.334 -131.808 210.872 -136.614 212.394C-141.419 213.917 -142.747 215.416 -141.627 216.688C-140.913 217.5 -139.084 218.259 -134.646 218.585C-126.347 219.195 -111.571 218.145 -102.995 218.7C-98.2156 219.009 -96.0952 219.777 -91.9015 220.196C-87.3961 220.647 -80.8006 220.671 -74.3205 220.66C-60.8281 220.638 -46.9906 220.5 -32.8806 220.245C-26.9871 220.139 -20.8118 220.001 -14.5406 219.495C-8.26939 218.989 -1.87302 218.013 -0.549942 217.097" fill="white"/>
</g>
<g opacity="0.17">
<path d="M131.004 274.623C133.194 273.668 128.753 273.113 123.714 272.93C118.674 272.747 112.578 272.757 109.358 272.237C106.243 271.734 106.473 270.84 106.211 270.03C105.949 269.22 104.751 268.39 99.8915 268.21C93.8354 267.986 83.8485 268.849 79.2768 268.331C75.0105 267.847 77.5465 266.329 71.3256 266.271C67.7732 266.238 63.1968 266.738 59.2441 266.859C55.5332 266.972 52.7879 266.738 50.8613 266.422C48.9347 266.106 47.5928 265.706 45.4245 265.427C39.7319 264.695 28.5943 264.941 18.6536 265.879C8.71294 266.818 0.19195 268.355 -4.61362 269.878C-9.41919 271.401 -10.7469 272.9 -9.62748 274.171C-8.91268 274.983 -7.08353 275.742 -2.64646 276.068C5.65278 276.679 20.4288 275.628 29.0047 276.183C33.7844 276.493 35.9048 277.26 40.0985 277.68C44.6039 278.131 51.1994 278.155 57.6795 278.144C71.1719 278.122 85.0094 277.983 99.1194 277.729C105.013 277.623 111.188 277.485 117.459 276.978C123.731 276.472 130.127 275.496 131.45 274.581" fill="white"/>
</g>
<g opacity="0.17">
<path d="M122.004 106.623C124.194 105.668 119.753 105.113 114.714 104.93C109.674 104.747 103.578 104.757 100.358 104.237C97.2433 103.734 97.4728 102.84 97.2108 102.03C96.9488 101.22 95.7514 100.39 90.8915 100.21C84.8354 99.9855 74.8485 100.849 70.2768 100.331C66.0105 99.8468 68.5465 98.329 62.3256 98.2709C58.7732 98.2378 54.1968 98.7382 50.2441 98.8589C46.5332 98.9723 43.7879 98.7375 41.8613 98.4219C39.9347 98.1062 38.5928 97.7061 36.4245 97.4272C30.7319 96.6953 19.5943 96.9413 9.65363 97.8794C-0.287058 98.8176 -8.80805 100.355 -13.6136 101.878C-18.4192 103.401 -19.7469 104.9 -18.6275 106.171C-17.9127 106.983 -16.0835 107.742 -11.6465 108.068C-3.34722 108.679 11.4288 107.628 20.0047 108.183C24.7844 108.493 26.9048 109.26 31.0985 109.68C35.6039 110.131 42.1994 110.155 48.6795 110.144C62.1719 110.122 76.0094 109.983 90.1194 109.729C96.0129 109.623 102.188 109.485 108.459 108.978C114.731 108.472 121.127 107.496 122.45 106.581" fill="white"/>
</g>
<g opacity="0.17">
<path d="M357.004 192.623C359.194 191.668 354.753 191.113 349.714 190.93C344.674 190.747 338.578 190.757 335.358 190.237C332.243 189.734 332.473 188.84 332.211 188.03C331.949 187.22 330.751 186.39 325.891 186.21C319.835 185.986 309.848 186.849 305.277 186.331C301.011 185.847 303.546 184.329 297.326 184.271C293.773 184.238 289.197 184.738 285.244 184.859C281.533 184.972 278.788 184.738 276.861 184.422C274.935 184.106 273.593 183.706 271.425 183.427C265.732 182.695 254.594 182.941 244.654 183.879C234.713 184.818 226.192 186.355 221.386 187.878C216.581 189.401 215.253 190.9 216.373 192.171C217.087 192.983 218.916 193.742 223.354 194.068C231.653 194.679 246.429 193.628 255.005 194.183C259.784 194.493 261.905 195.26 266.099 195.68C270.604 196.131 277.199 196.155 283.68 196.144C297.172 196.122 311.009 195.983 325.119 195.729C331.013 195.623 337.188 195.485 343.459 194.978C349.731 194.472 356.127 193.496 357.45 192.581" fill="white"/>
</g>
<path d="M28.5 208C28.7761 208 29 207.552 29 207C29 206.448 28.7761 206 28.5 206C28.2239 206 28 206.448 28 207C28 207.552 28.2239 208 28.5 208Z" fill="#F2F2F2"/>
<path d="M152.5 261C152.776 261 153 260.552 153 260C153 259.448 152.776 259 152.5 259C152.224 259 152 259.448 152 260C152 260.552 152.224 261 152.5 261Z" fill="#F2F2F2"/>
<path d="M235 207C235.552 207 236 206.552 236 206C236 205.448 235.552 205 235 205C234.448 205 234 205.448 234 206C234 206.552 234.448 207 235 207Z" fill="#F2F2F2"/>
<path d="M75 50C75.5523 50 76 49.5523 76 49C76 48.4477 75.5523 48 75 48C74.4477 48 74 48.4477 74 49C74 49.5523 74.4477 50 75 50Z" fill="#F2F2F2"/>
<path d="M9 164H8V165H9V164Z" fill="#F2F2F2"/>
<path d="M63 223H62V224H63V223Z" fill="#F2F2F2"/>
<path d="M4.99959 269.418C5.08429 294.547 -7.84662 315 -7.84662 315C-7.84662 315 -20.9149 294.711 -20.9996 269.582C-21.0843 244.453 -8.15338 224 -8.15338 224C-8.15338 224 4.91488 244.289 4.99959 269.418Z" fill="#0D520F"/>
<path d="M175 282H173V353H175V282Z" fill="#19BD1D"/>
<path d="M187 290.919C187.084 315.772 174.153 336 174.153 336C174.153 336 161.085 315.934 161 291.081C160.916 266.228 173.847 246 173.847 246C173.847 246 186.915 266.066 187 290.919Z" fill="#0D520F"/>
<path d="M77 282H76V353H77V282Z" fill="#0D520F"/>
<path d="M88.9996 269.418C89.081 294.547 76.6475 315 76.6475 315C76.6475 315 64.0818 294.711 64.0004 269.582C63.9189 244.453 76.3525 224 76.3525 224C76.3525 224 88.9182 244.289 88.9996 269.418Z" fill="#0D520F"/>
<path d="M61 261H59V353H61V261Z" fill="#0D520F"/>
<path d="M76.9995 250.894C77.1102 283.479 60.2006 310 60.2006 310C60.2006 310 43.1113 283.691 43.0005 251.106C42.8898 218.521 59.7994 192 59.7994 192C59.7994 192 76.8887 218.309 76.9995 250.894Z" fill="#0D520F"/>
<path d="M46 282H44V353H46V282Z" fill="#0D520F"/>
<path d="M57.9996 269.418C58.0843 294.547 45.1534 315 45.1534 315C45.1534 315 32.0851 294.711 32.0004 269.582C31.9157 244.453 44.8466 224 44.8466 224C44.8466 224 57.9149 244.289 57.9996 269.418Z" fill="#0D520F"/>
<path d="M183 314.824L161.086 287C161.027 288.25 160.996 289.514 161 290.791C161.084 315.804 173.963 336 173.963 336C177.713 329.593 180.758 322.458 183 314.824Z" fill="#19BD1D"/>
<path d="M19.2589 346.74C20.116 350.606 23.052 353 23.052 353C23.052 353 24.5983 349.126 23.7411 345.26C22.884 341.394 19.9479 339 19.9479 339C19.9479 339 18.4017 342.874 19.2589 346.74Z" fill="#0D520F"/>
<path d="M20.8309 345.994C22.7639 348.755 23 353 23 353C23 353 20.1021 352.768 18.1691 350.006C16.2361 347.245 16 343 16 343C16 343 18.8979 343.232 20.8309 345.994Z" fill="#0D520F"/>
<path d="M125.259 346.74C126.116 350.606 129.052 353 129.052 353C129.052 353 130.598 349.126 129.741 345.26C128.884 341.394 125.948 339 125.948 339C125.948 339 124.402 342.874 125.259 346.74Z" fill="#19BD1D"/>
<path d="M126.831 345.994C128.764 348.755 129 353 129 353C129 353 126.102 352.768 124.169 350.006C122.236 347.245 122 343 122 343C122 343 124.898 343.232 126.831 345.994Z" fill="#19BD1D"/>
<path d="M52 208.038L87.7973 283C88.597 278.456 89.0007 273.795 89 269.118C88.9595 256.92 85.8905 245.869 82.7563 237.746L81.1003 238.317L82.6578 237.492C80.8122 232.664 78.6141 228.112 76.098 223.907C76.098 223.907 75.1846 225.374 73.8504 228.001C69.1473 206.835 59.733 192 59.733 192C56.7946 196.994 54.2053 202.364 52 208.038Z" fill="#19BD1D"/>
<path opacity="0.1" d="M258.924 343C259.209 343 259.483 342.842 259.685 342.561C259.887 342.279 260 341.898 260 341.5C260 341.102 259.887 340.721 259.685 340.439C259.483 340.158 259.209 340 258.924 340H250.076C250.361 340.796 250.408 341.717 250.207 342.561C250.005 343.405 249.571 344.102 249 344.5C249 344.898 249.113 345.279 249.315 345.561C249.517 345.842 249.791 346 250.076 346H258.924C259.209 346 259.483 345.842 259.685 345.561C259.887 345.279 260 344.898 260 344.5C260 344.102 259.887 343.721 259.685 343.439C259.483 343.158 259.209 343 258.924 343Z" fill="#F2F2F2"/>
<path d="M237.996 339.436C238.141 347.915 234.725 345.754 230.584 345.754C226.444 345.754 223.028 346.834 223 339.436C222.986 335.792 226.382 335 230.522 335C234.663 335 237.933 335.794 237.996 339.436Z" fill="#1E1E1E"/>
<path d="M248.809 343.149C248.736 343.097 248.658 343.064 248.576 343.049C248.17 342.963 247.767 342.849 247.369 342.706C246.97 342.562 246.603 342.291 246.3 341.915C246.187 341.739 246.061 341.578 245.924 341.436C245.854 341.366 245.771 341.324 245.683 341.316C245.596 341.308 245.509 341.333 245.433 341.389C245.417 341.406 245.403 341.424 245.389 341.444C245.334 341.395 245.278 341.346 245.222 341.297C244.926 341.038 244.628 340.781 244.328 340.527L244.316 340.517C244.324 340.454 244.325 340.39 244.317 340.328C244.264 340.122 244.159 339.947 244.018 339.836C244.405 339.831 244.794 339.784 245.178 339.73C245.544 339.738 245.897 339.554 246.162 339.218C246.202 339.16 246.226 339.086 246.23 339.007C246.231 338.846 246.106 338.741 245.994 338.68C245.845 338.599 245.69 338.538 245.532 338.498C245.421 338.478 245.312 338.447 245.204 338.407C245.108 338.361 245.016 338.303 244.928 338.234C244.737 338.095 244.547 337.955 244.357 337.816C244.275 337.764 244.201 337.695 244.136 337.612C244.039 337.476 243.996 337.283 243.897 337.149C243.806 337.025 243.437 336.862 243.385 337.116C243.364 337.216 243.443 337.326 243.453 337.438C243.325 337.332 243.193 337.235 243.058 337.149C243.065 337.127 243.075 337.107 243.081 337.084C242.449 336.41 241.947 335.546 241.616 334.562C241.673 334.564 241.73 334.569 241.786 334.568C241.883 334.58 241.979 334.549 242.061 334.479C242.094 334.438 242.12 334.388 242.137 334.332C242.154 334.276 242.161 334.216 242.158 334.156C242.151 334.035 242.128 333.918 242.092 333.807C242.011 333.475 241.883 333.168 241.713 332.902C241.549 332.691 241.361 332.515 241.157 332.378L241.124 332.353C241.111 332.297 241.098 332.241 241.081 332.186C240.958 331.846 240.819 331.517 240.664 331.2C240.447 330.67 240.287 330.103 240.188 329.513C240.152 329.155 240.048 328.814 239.887 328.521C239.59 328.086 239.08 328.097 238.64 328.162C238.39 328.2 238.14 328.25 237.891 328.302C237.888 328.293 237.888 328.284 237.886 328.276C237.854 328.198 237.835 328.113 237.828 328.025C237.834 327.953 237.846 327.882 237.863 327.813C237.877 327.728 237.874 327.639 237.855 327.556C237.836 327.473 237.801 327.397 237.754 327.336C237.744 327.323 237.734 327.308 237.723 327.293C237.751 327.207 237.776 327.12 237.799 327.033C237.82 327 237.835 326.963 237.845 326.922C237.854 326.881 237.857 326.839 237.854 326.797C237.899 326.584 237.923 326.365 237.925 326.144C237.874 325.657 237.861 325.164 237.886 324.673C237.873 324.551 237.839 324.435 237.788 324.333C237.779 324.316 237.764 324.309 237.754 324.294C237.829 324.16 237.917 324.039 238.015 323.933C238.207 323.736 238.412 323.563 238.628 323.417C238.68 323.379 238.752 323.352 238.802 323.308C238.878 323.325 238.954 323.336 239.031 323.339C239.317 323.341 239.598 323.251 239.851 323.075C240.104 322.899 240.321 322.644 240.483 322.331C240.645 322.018 240.746 321.657 240.779 321.28C240.812 320.903 240.774 320.521 240.67 320.167C240.75 320.142 240.824 320.096 240.89 320.031C240.955 319.967 241.01 319.886 241.052 319.793C241.138 319.595 241.189 319.375 241.202 319.148C241.216 319.06 241.216 318.97 241.204 318.883C241.191 318.795 241.166 318.712 241.129 318.638C241.063 318.553 240.988 318.483 240.906 318.43C240.792 318.336 240.697 318.208 240.628 318.056C240.578 317.948 240.543 317.83 240.499 317.718C240.425 317.511 240.311 317.334 240.167 317.208C240.023 317.081 239.856 317.009 239.684 317C239.52 317.028 239.359 317.071 239.199 317.128C238.654 317.256 238.061 316.872 237.555 317.171C237.431 317.252 237.315 317.354 237.211 317.476C237.069 317.632 236.932 317.797 236.8 317.97C236.686 318.099 236.6 318.266 236.55 318.454C236.481 318.797 236.645 319.181 236.541 319.508C236.505 319.602 236.463 319.69 236.414 319.773C236.299 319.997 236.424 320.871 236.411 321.141C236.396 321.273 236.422 321.408 236.481 321.516C236.497 321.536 236.514 321.554 236.533 321.568C235.684 321.97 234.854 322.439 234.047 322.972C233.078 323.595 232.274 324.594 231.741 325.836C231.604 326.191 231.5 326.567 231.376 326.93C231.211 327.415 231.011 327.877 230.811 328.339C230.568 328.901 230.324 329.465 230.042 329.995C229.882 330.277 229.733 330.569 229.597 330.873C229.593 330.917 229.593 330.961 229.594 331.006C229.6 331.048 229.596 331.091 229.585 331.13C229.573 331.153 229.557 331.173 229.539 331.187C229.52 331.201 229.5 331.209 229.479 331.211L229.472 331.234C229.408 331.507 229.356 331.784 229.314 332.064C229.231 332.509 229.098 332.938 229.047 333.391C229.018 333.448 229.001 333.515 229 333.584C228.999 333.654 229.013 333.722 229.041 333.78C229.068 333.839 229.108 333.885 229.155 333.914C229.203 333.943 229.255 333.952 229.307 333.942C229.598 334.114 229.88 334.316 230.16 334.52C230.156 334.548 230.149 334.574 230.147 334.602C230.138 334.89 230.19 335.176 230.298 335.427C230.406 335.677 230.565 335.882 230.756 336.018C231.143 336.28 231.567 336.433 232 336.467C232.168 336.494 232.337 336.506 232.506 336.529C232.752 336.711 233.013 336.852 233.284 336.949C233.344 336.972 233.405 336.984 233.467 336.987C233.549 336.979 233.63 336.948 233.702 336.894C233.774 336.84 233.836 336.765 233.883 336.675C235.332 336.781 236.785 336.742 238.229 336.557C238.629 336.433 239.049 336.52 239.402 336.799C239.715 337.137 239.778 337.737 240.011 338.176C240.18 338.446 240.37 338.692 240.578 338.91C240.99 339.491 241.355 340.128 241.666 340.812C241.979 341.502 242.434 342.06 242.976 342.421C243.074 342.214 243.216 342.05 243.383 341.95C243.427 341.916 243.468 341.876 243.511 341.839C243.568 341.962 243.635 342.078 243.71 342.184C243.765 342.264 243.821 342.349 243.873 342.436C243.872 342.436 243.87 342.435 243.868 342.435C243.793 342.451 243.767 342.577 243.758 342.679C243.725 343.067 243.692 343.455 243.658 343.844C243.647 343.92 243.651 344 243.67 344.074C243.706 344.154 243.762 344.216 243.828 344.248C244.099 344.421 244.392 344.524 244.692 344.551C244.843 344.565 244.995 344.559 245.145 344.577C245.393 344.619 245.637 344.684 245.878 344.771C246.532 344.969 247.205 345.039 247.875 344.979C248.014 344.974 248.151 344.94 248.281 344.877C248.434 344.779 248.571 344.639 248.68 344.465C248.82 344.289 248.924 344.069 248.981 343.825C249.008 343.702 249.006 343.571 248.975 343.45C248.944 343.33 248.886 343.224 248.809 343.149Z" fill="#1E1E1E"/>
<path d="M239.383 317.699C239.421 317.808 239.452 317.923 239.494 318.028C239.554 318.176 239.635 318.3 239.733 318.392C239.803 318.443 239.868 318.512 239.924 318.594C239.956 318.666 239.978 318.747 239.989 318.833C239.999 318.918 239.999 319.005 239.987 319.09C239.976 319.311 239.932 319.526 239.858 319.718C239.823 319.809 239.775 319.888 239.719 319.95C239.663 320.013 239.599 320.058 239.531 320.083C239.634 320.45 239.669 320.852 239.634 321.247C239.598 321.642 239.493 322.015 239.329 322.327C239.165 322.64 238.948 322.88 238.701 323.023C238.454 323.166 238.187 323.206 237.926 323.14C237.883 323.182 237.822 323.208 237.777 323.245C237.592 323.388 237.415 323.556 237.25 323.748C237.166 323.851 237.091 323.969 237.026 324.099C237.035 324.114 237.048 324.121 237.056 324.137C237.1 324.236 237.128 324.349 237.139 324.468C237.118 324.946 237.129 325.426 237.173 325.9C237.171 326.115 237.151 326.328 237.112 326.535C237.115 326.576 237.112 326.618 237.104 326.657C237.096 326.697 237.083 326.733 237.065 326.765C237.045 326.85 237.023 326.935 237 327.018C237.009 327.032 237.018 327.047 237.027 327.06C237.067 327.119 237.096 327.193 237.113 327.274C237.129 327.355 237.132 327.441 237.12 327.524C237.105 327.591 237.095 327.66 237.09 327.73C237.096 327.816 237.112 327.899 237.139 327.975C237.141 327.983 237.141 327.992 237.144 328C237.358 327.95 237.572 327.901 237.788 327.864C237.894 327.846 238 327.835 238.107 327.833C238.099 327.8 238.094 327.765 238.094 327.73C238.099 327.66 238.109 327.591 238.124 327.524C238.135 327.441 238.133 327.355 238.117 327.274C238.1 327.193 238.07 327.119 238.03 327.06C238.021 327.047 238.013 327.032 238.004 327.018C238.027 326.935 238.049 326.85 238.069 326.765C238.086 326.733 238.1 326.697 238.108 326.657C238.116 326.618 238.119 326.576 238.116 326.535C238.155 326.328 238.175 326.115 238.177 325.9C238.133 325.426 238.121 324.946 238.143 324.468C238.132 324.349 238.103 324.236 238.059 324.137C238.052 324.121 238.038 324.114 238.03 324.099C238.095 323.969 238.17 323.851 238.254 323.748C238.419 323.556 238.595 323.388 238.781 323.245C238.825 323.208 238.887 323.182 238.93 323.14C238.995 323.156 239.061 323.166 239.127 323.17C239.372 323.172 239.614 323.084 239.831 322.913C240.048 322.742 240.234 322.493 240.373 322.189C240.512 321.884 240.599 321.533 240.628 321.166C240.656 320.799 240.624 320.427 240.534 320.083C240.602 320.058 240.666 320.013 240.723 319.95C240.779 319.888 240.826 319.809 240.862 319.718C240.936 319.526 240.98 319.311 240.991 319.09C241.003 319.005 241.003 318.918 240.992 318.833C240.981 318.747 240.96 318.666 240.928 318.594C240.872 318.512 240.807 318.443 240.736 318.392C240.639 318.3 240.557 318.176 240.498 318.028C240.455 317.923 240.425 317.808 240.387 317.699C240.324 317.497 240.225 317.325 240.102 317.202C239.979 317.079 239.835 317.009 239.687 317C239.547 317.027 239.408 317.069 239.271 317.125C239.194 317.143 239.117 317.151 239.039 317.148C239.185 317.281 239.304 317.471 239.383 317.699Z" fill="#FF6584"/>
<path d="M248.803 343.135C248.728 343.084 248.647 343.05 248.563 343.035C248.143 342.949 247.726 342.833 247.316 342.689C246.903 342.544 246.525 342.271 246.212 341.893C246.096 341.715 245.965 341.553 245.823 341.41C245.752 341.339 245.665 341.297 245.575 341.289C245.486 341.28 245.396 341.306 245.317 341.362C245.3 341.379 245.285 341.398 245.272 341.418C245.214 341.368 245.157 341.319 245.099 341.27C244.793 341.008 244.485 340.75 244.176 340.494L244.163 340.484C244.172 340.421 244.173 340.356 244.164 340.293C244.11 340.085 244.001 339.91 243.856 339.797C244.255 339.792 244.657 339.745 245.053 339.69C245.431 339.699 245.796 339.514 246.07 339.175C246.111 339.116 246.136 339.041 246.14 338.962C246.141 338.8 246.012 338.694 245.896 338.632C245.742 338.551 245.582 338.489 245.419 338.45C245.305 338.429 245.191 338.398 245.08 338.358C244.981 338.311 244.886 338.253 244.795 338.183C244.599 338.043 244.402 337.902 244.205 337.762C244.122 337.709 244.045 337.64 243.977 337.556C243.877 337.419 243.833 337.225 243.731 337.089C243.637 336.965 243.256 336.801 243.202 337.056C243.18 337.157 243.262 337.268 243.272 337.381C243.141 337.274 243.004 337.177 242.864 337.09C242.872 337.068 242.882 337.047 242.888 337.024C242.236 336.345 241.717 335.474 241.376 334.483C241.435 334.485 241.493 334.49 241.551 334.489C241.651 334.501 241.751 334.469 241.835 334.399C241.869 334.358 241.897 334.308 241.914 334.251C241.931 334.195 241.939 334.134 241.935 334.073C241.928 333.952 241.905 333.833 241.867 333.722C241.784 333.388 241.651 333.078 241.476 332.81C241.306 332.598 241.113 332.42 240.902 332.282L240.868 332.257C240.854 332.201 240.841 332.144 240.823 332.089C240.696 331.746 240.553 331.414 240.393 331.095C240.169 330.561 240.003 329.989 239.901 329.396C239.864 329.034 239.757 328.69 239.591 328.396C239.284 327.957 238.757 327.968 238.303 328.034C238.202 328.049 238.101 328.071 238 328.089C238.147 328.145 238.279 328.251 238.384 328.396C238.55 328.69 238.657 329.034 238.694 329.396C238.796 329.989 238.962 330.561 239.186 331.095C239.346 331.414 239.49 331.746 239.617 332.089C239.634 332.144 239.647 332.201 239.661 332.257L239.695 332.282C239.906 332.42 240.099 332.598 240.269 332.81C240.444 333.078 240.577 333.388 240.661 333.722C240.698 333.833 240.721 333.952 240.728 334.073C240.732 334.134 240.724 334.195 240.707 334.251C240.69 334.308 240.663 334.358 240.628 334.399C240.544 334.469 240.444 334.501 240.345 334.489C240.286 334.49 240.228 334.485 240.169 334.483C240.51 335.474 241.029 336.345 241.682 337.024C241.675 337.047 241.665 337.068 241.657 337.09C241.798 337.177 241.934 337.274 242.066 337.381C242.056 337.268 241.974 337.157 241.995 337.056C242.049 336.801 242.43 336.965 242.524 337.089C242.626 337.225 242.67 337.419 242.77 337.556C242.838 337.64 242.915 337.709 242.999 337.762C243.195 337.902 243.392 338.043 243.588 338.183C243.679 338.253 243.774 338.311 243.873 338.358C243.985 338.398 244.098 338.429 244.212 338.45C244.375 338.489 244.535 338.551 244.689 338.632C244.805 338.694 244.934 338.8 244.933 338.962C244.929 339.041 244.904 339.116 244.863 339.175C244.589 339.514 244.224 339.699 243.846 339.69C243.45 339.745 243.049 339.792 242.649 339.797C242.794 339.91 242.903 340.085 242.957 340.293C242.966 340.356 242.965 340.421 242.957 340.484L242.969 340.494C243.278 340.75 243.586 341.008 243.893 341.27C243.95 341.319 244.008 341.368 244.065 341.418C244.079 341.398 244.094 341.379 244.11 341.362C244.189 341.306 244.279 341.28 244.369 341.289C244.459 341.297 244.545 341.339 244.617 341.41C244.758 341.553 244.889 341.715 245.005 341.893C245.318 342.271 245.697 342.544 246.109 342.689C246.52 342.833 246.936 342.949 247.356 343.035C247.44 343.05 247.521 343.084 247.596 343.135C247.676 343.212 247.736 343.318 247.768 343.44C247.799 343.561 247.802 343.693 247.774 343.817C247.714 344.063 247.607 344.285 247.463 344.462C247.35 344.637 247.209 344.778 247.05 344.877C246.952 344.925 246.849 344.955 246.744 344.964C247.108 345.006 247.474 345.011 247.839 344.98C247.982 344.975 248.123 344.941 248.257 344.877C248.416 344.778 248.557 344.637 248.67 344.462C248.814 344.285 248.921 344.063 248.981 343.817C249.008 343.693 249.006 343.561 248.974 343.44C248.942 343.318 248.883 343.212 248.803 343.135Z" fill="#FF6584"/>
<path d="M259 336.848C259 342.318 257.209 340.809 255 340.809C252.791 340.809 251 342.318 251 336.848C251 331.377 255 321 255 321C255 321 259 331.377 259 336.848Z" fill="#FF6584"/>
<path opacity="0.1" d="M257 339.131C257 341.593 256.105 340.914 255 340.914C253.895 340.914 253 341.593 253 339.131C253 336.67 255 332 255 332C255 332 257 336.67 257 339.131Z" fill="black"/>
<path d="M260 323C260 323 261.02 321.485 261 320L260 323Z" fill="#FF6584"/>
<path d="M251 313C251 313 250.683 311.517 250 311L251 313Z" fill="#FF6584"/>
<path d="M243 292C243 292 242.683 290.517 242 290L243 292Z" fill="#FF6584"/>
<path d="M253 320C253 320 252.683 318.517 252 318L253 320Z" fill="#FF6584"/>
<path d="M252 295C252 295 251.683 293.517 251 293L252 295Z" fill="#FF6584"/>
<path d="M250 304C250 304 249.366 302.517 248 302L250 304Z" fill="#FF6584"/>
<path d="M259 339C259 339 260.02 337.485 260 336L259 339Z" fill="#FF6584"/>
<path d="M250.311 328.343L241.353 332.463L241.471 332.952L250.43 328.832L250.311 328.343Z" fill="#FF6584"/>
<path d="M249.905 329.138C250.22 331.052 249.69 330.595 249.207 330.75C248.723 330.905 248.818 331.595 248.153 329.7C247.694 328.389 248.368 328.244 248.851 328.089C249.335 327.934 249.689 327.832 249.905 329.138Z" fill="#FF6584"/>
<path opacity="0.8" d="M235.619 262.987L251.508 255.002L267.398 247.016L276.367 242.508C276.864 242.259 276.716 241.146 276.219 241.395L260.33 249.38L244.441 257.366L235.471 261.873C234.975 262.123 235.123 263.236 235.619 262.987Z" fill="url(#paint1_linear_466_190)"/>
<path opacity="0.8" d="M22.619 40.9868L38.5082 33.0015L54.3975 25.0162L63.3673 20.5084C63.8636 20.259 63.7157 19.1456 63.2194 19.395L47.3302 27.3803L31.4409 35.3655L22.4711 39.8734C21.9749 40.1228 22.1227 41.2362 22.619 40.9868Z" fill="url(#paint2_linear_466_190)"/>
<path opacity="0.8" d="M243.619 96.9868L259.508 89.0015L275.397 81.0162L284.367 76.5084C284.863 76.259 284.715 75.1456 284.219 75.395L268.33 83.3803L252.441 91.3655L243.471 95.8734C242.975 96.1228 243.122 97.2362 243.619 96.9868Z" fill="url(#paint3_linear_466_190)"/>
<path d="M227.426 112L227.98 115.734C228.939 117.037 236.457 116.135 228.091 117.17L227.204 121L226.649 117.457C221.593 115.839 221.978 117.321 226.649 115.734L227.426 112Z" fill="#F0F0F0"/>
<path d="M93.4255 167L93.98 170.734C94.9385 172.037 102.457 171.135 94.0909 172.17L93.2037 176L92.6493 172.457C87.5928 170.839 87.9782 172.321 92.6493 170.734L93.4255 167Z" fill="#F0F0F0"/>
<path d="M126.426 41L126.98 44.734C127.939 46.0375 135.457 45.1353 127.091 46.1702L126.204 50L125.649 46.4574C120.593 44.8393 120.978 46.3211 125.649 44.734L126.426 41Z" fill="#F0F0F0"/>
<path d="M224.426 32L224.98 35.734C225.939 37.0375 233.457 36.1353 225.091 37.1702L224.204 41L223.649 37.4574C218.593 35.8393 218.978 37.3211 223.649 35.734L224.426 32Z" fill="#F0F0F0"/>
<path d="M115.426 291L115.98 294.734C116.939 296.037 124.457 295.135 116.091 296.17L115.204 300L114.649 296.457C109.593 294.839 109.978 296.321 114.649 294.734L115.426 291Z" fill="#F0F0F0"/>
</g>
<defs>
<linearGradient id="paint0_linear_466_190" x1="30.3952" y1="222.353" x2="58.7369" y2="234.043" gradientUnits="userSpaceOnUse">
<stop stop-color="white"/>
<stop offset="1" stop-color="white" stop-opacity="0.3"/>
</linearGradient>
<linearGradient id="paint1_linear_466_190" x1="243.395" y1="242.353" x2="271.737" y2="254.043" gradientUnits="userSpaceOnUse">
<stop stop-color="white"/>
<stop offset="1" stop-color="white" stop-opacity="0.3"/>
</linearGradient>
<linearGradient id="paint2_linear_466_190" x1="30.3952" y1="20.3532" x2="58.7369" y2="32.0433" gradientUnits="userSpaceOnUse">
<stop stop-color="white"/>
<stop offset="1" stop-color="white" stop-opacity="0.3"/>
</linearGradient>
<linearGradient id="paint3_linear_466_190" x1="251.395" y1="76.3532" x2="279.737" y2="88.0433" gradientUnits="userSpaceOnUse">
<stop stop-color="white"/>
<stop offset="1" stop-color="white" stop-opacity="0.3"/>
</linearGradient>
<clipPath id="clip0_466_190">
<rect width="283" height="354" fill="white"/>
</clipPath>
</defs>
</svg>
