<svg width="1600" height="736" viewBox="0 0 1600 736" fill="none" xmlns="http://www.w3.org/2000/svg">
<g clip-path="url(#clip0_448_189)">
<path d="M1055.71 453.44C1062.76 453.44 1068.47 447.728 1068.47 440.682C1068.47 433.637 1062.76 427.925 1055.71 427.925C1048.67 427.925 1042.95 433.637 1042.95 440.682C1042.95 447.728 1048.67 453.44 1055.71 453.44Z" fill="#6C63FF"/>
<path d="M1055.11 433.025C1056.2 432.976 1057.37 433.958 1057.19 435.101C1057.06 435.959 1055.47 437.005 1054.09 436.151C1052.76 435.332 1053.13 433.116 1055.11 433.025Z" fill="white"/>
<path d="M1049.7 434.331C1050.17 434.289 1050.39 434.843 1050.14 435.288C1049.99 435.574 1048.62 436.343 1048.46 435.708C1048.34 435.196 1049.28 434.37 1049.7 434.331Z" fill="white"/>
<path d="M1062.81 434.845C1064.04 434.545 1065.08 437.904 1063.28 436.898C1062.28 436.343 1062.35 434.958 1062.81 434.845Z" fill="white"/>
<path d="M1070.31 439.62C1065.11 445.116 1058.65 450.763 1051.93 454.292C1039.51 460.82 1032.96 458.096 1042.67 445.816C1039.23 436.032 1045.33 427.317 1055.76 427.924C1054.42 428.077 1055.15 427.731 1054.07 428.225C1050.29 429.947 1047.81 429.561 1045.1 433.566C1044.69 434.168 1043.97 435.345 1043.96 436.059C1043.48 436.744 1043.14 438.226 1043.1 439.193C1042.91 443.876 1044.78 448.171 1047.87 451.585C1054.47 449.754 1065.84 440.449 1069.03 434.635C1071.17 430.732 1070.12 428.85 1065.61 430.219C1065.52 430.136 1064.67 430.227 1065.04 429.364C1065.97 429.296 1069.46 427.359 1071.66 428.652C1074.33 430.215 1070.99 434.709 1069.74 436.344C1065.51 441.872 1055.36 450.239 1048.94 452.867C1046.33 453.936 1040.17 456.18 1041.25 450.944C1041.6 449.273 1043.91 446.665 1042.89 446.6C1042.54 446.578 1039.78 451.446 1039.68 452.796C1039.29 457.994 1046.97 454.645 1049.37 453.58C1056.74 450.31 1064.94 443.592 1070.02 437.341C1076.7 429.127 1075.91 424.388 1064.47 429.079H1063.76C1063.76 429.001 1063.37 428.81 1063.33 428.795C1078.83 421.784 1079.85 428.919 1070.31 439.62Z" fill="#FFFEFF"/>
<path d="M406.342 620.044C406.437 620.619 406.658 621.165 406.988 621.645C407.318 622.126 407.749 622.528 408.251 622.823C408.753 623.119 409.313 623.301 409.893 623.356C410.473 623.411 411.058 623.339 411.607 623.144L420.647 633.752L422.907 626.749L413.967 617.771C413.578 616.871 412.872 616.144 411.984 615.729C411.095 615.315 410.085 615.24 409.145 615.52C408.205 615.801 407.4 616.416 406.884 617.25C406.367 618.083 406.174 619.077 406.342 620.044Z" fill="#9E616A"/>
<path d="M442.791 617.399C442.791 617.399 447.367 609.799 451.664 611.966C455.961 614.133 452.654 621.649 452.654 621.649L432.544 644.987C432.544 644.987 410.138 626.278 413.116 626.541C416.094 626.804 417.66 621.524 417.66 621.524L429.733 629.585L430.457 627.348L431.068 628.135L433.05 626.943L442.791 617.399Z" fill="#535181"/>
<path d="M532.145 671.594L516.735 664.795V658.95L522.227 658.919C523.079 658.915 523.908 658.643 524.598 658.143C525.288 657.642 525.804 656.939 526.074 656.13L529.932 648.925C530.136 648.312 530.192 647.659 530.095 647.02C529.997 646.381 529.749 645.774 529.371 645.25C528.993 644.726 528.496 644.299 527.921 644.004C527.346 643.71 526.708 643.556 526.062 643.556L516.735 646.833V641.394H528.444C529.367 641.394 530.263 641.081 530.985 640.506C531.707 639.931 532.213 639.128 532.42 638.229L535.077 626.671C535.214 626.073 535.215 625.452 535.079 624.854C534.943 624.256 534.674 623.696 534.292 623.216C533.91 622.736 533.425 622.349 532.872 622.082C532.32 621.816 531.714 621.678 531.101 621.678H516.735V620.318C516.735 619.597 516.449 618.905 515.939 618.395C515.429 617.885 514.737 617.599 514.016 617.599C513.294 617.599 512.603 617.885 512.093 618.395C511.583 618.905 511.296 619.597 511.296 620.318V621.678H414.982V620.318C414.982 619.597 414.696 618.905 414.186 618.395C413.676 617.885 412.984 617.599 412.263 617.599C411.541 617.599 410.85 617.885 410.34 618.395C409.83 618.905 409.543 619.597 409.543 620.318V621.678H398.123C397.51 621.678 396.904 621.816 396.352 622.082C395.799 622.349 395.314 622.736 394.932 623.216C394.55 623.696 394.281 624.256 394.145 624.854C394.01 625.452 394.01 626.073 394.148 626.671L396.805 638.229C397.012 639.128 397.517 639.931 398.239 640.506C398.961 641.081 399.857 641.394 400.78 641.394H409.543V646.833L403.162 643.556C402.519 643.556 401.885 643.708 401.312 643.999C400.739 644.291 400.244 644.714 399.865 645.233C399.486 645.753 399.236 646.355 399.134 646.99C399.033 647.624 399.082 648.274 399.28 648.886L403.217 656.738C403.483 657.563 404.005 658.282 404.708 658.791C405.41 659.299 406.256 659.571 407.123 659.566L409.543 659.552V664.795L397.079 671.594C395.997 671.594 394.96 672.023 394.195 672.788C393.43 673.553 393 674.591 393 675.673C393 676.755 393.43 677.792 394.195 678.557C394.96 679.322 395.997 679.752 397.079 679.752H409.543V732.603C409.543 733.325 409.83 734.016 410.34 734.526C410.85 735.036 411.542 735.323 412.263 735.323C412.984 735.323 413.676 735.036 414.186 734.526C414.696 734.016 414.982 733.325 414.982 732.603V679.752H511.296V733.15C511.296 733.871 511.583 734.562 512.093 735.072C512.603 735.582 513.294 735.869 514.016 735.869C514.737 735.869 515.429 735.582 515.939 735.072C516.449 734.562 516.735 733.871 516.735 733.15V679.752H532.145C533.227 679.752 534.265 679.322 535.03 678.557C535.795 677.792 536.224 676.755 536.224 675.673C536.224 674.591 535.795 673.553 535.03 672.788C534.265 672.023 533.227 671.594 532.145 671.594ZM414.982 641.394H511.296V646.833H414.982V641.394ZM414.982 664.795V659.522L511.296 658.981V664.795L414.982 664.795Z" fill="#CCCCCC"/>
<path d="M451.176 592.634C451.87 591.031 452.923 589.609 454.253 588.477C455.584 587.346 457.157 586.535 458.851 586.108C462.611 585.13 468.117 586.62 470.944 588.76C476.115 592.673 477.377 606.116 473.825 610.365C473.118 610.336 470.68 610.315 469.964 610.295L468.953 607.734V610.27C463.37 610.139 457.558 610.221 451.743 610.306C451.222 607.298 449.98 595.527 451.176 592.634Z" fill="#2F2E41"/>
<path d="M458.951 607.122C463.404 607.122 467.015 603.512 467.015 599.058C467.015 594.604 463.404 590.993 458.951 590.993C454.497 590.993 450.886 594.604 450.886 599.058C450.886 603.512 454.497 607.122 458.951 607.122Z" fill="#9E616A"/>
<path d="M453.409 588.557C454.959 587.612 456.734 587.101 458.548 587.077C460.363 587.053 462.151 587.517 463.724 588.421C465.298 589.324 466.601 590.634 467.495 592.213C468.39 593.792 468.844 595.582 468.809 597.397C464.413 598.52 459.729 598.99 454.764 597.667L453.629 594.89L452.96 597.67C451.442 598.738 449.976 598.736 448.563 597.664C448.503 595.854 448.919 594.061 449.769 592.463C450.62 590.865 451.875 589.518 453.409 588.557Z" fill="#2F2E41"/>
<path d="M475.425 589.358C474.628 588.136 473.75 586.844 472.397 586.298C471.044 585.752 469.125 586.405 468.941 587.852C468.804 588.934 469.629 589.863 470.251 590.76C470.872 591.656 471.276 593.008 470.464 593.737L470.008 593.972C470.444 594.536 471.007 594.99 471.651 595.297C472.294 595.604 473.001 595.756 473.714 595.741C474.426 595.702 475.107 595.433 475.653 594.974C476.199 594.515 476.58 593.891 476.74 593.196C476.973 591.829 476.182 590.519 475.425 589.358Z" fill="#2F2E41"/>
<path d="M426.463 725.251L421.933 723.933L424.861 705.833L431.547 707.778L426.463 725.251Z" fill="#9E616A"/>
<path d="M425.618 734.381L422.404 733.446L422.713 730.244L420.36 732.852L411.835 730.371C411.426 730.252 411.066 730.006 410.807 729.668C410.549 729.33 410.405 728.918 410.397 728.493C410.388 728.067 410.517 727.65 410.762 727.303C411.008 726.955 411.358 726.695 411.762 726.561L419.938 723.84L420.831 720.771L427.867 723.282L425.618 734.381Z" fill="#535181"/>
<path d="M482.191 723.611L477.703 725.063L469.966 708.44L476.591 706.297L482.191 723.611Z" fill="#9E616A"/>
<path d="M486.587 731.485L483.402 732.516L481.861 729.692L481.377 733.171L472.929 735.904C472.525 736.035 472.088 736.033 471.685 735.898C471.281 735.764 470.93 735.504 470.685 735.156C470.439 734.809 470.311 734.392 470.319 733.966C470.328 733.541 470.472 733.129 470.73 732.791L475.969 725.949L474.986 722.909L482.219 721.037L486.587 731.485Z" fill="#535181"/>
<path d="M452.905 675.105L450.134 687.069L470.892 713.442L478.839 709.37C472.646 695.574 472.1 693.936 465.475 687.985L465.543 687.883C470.304 680.694 475.449 673.801 476.143 665.207C476.162 664.972 475.098 656.373 475.123 656.139C475.716 650.519 447.975 648.735 447.975 648.735C447.975 648.735 443.26 657.046 436.247 663.419L422.061 677.483L422.444 716.226L429.119 717.847C434.027 708.496 436.414 697.532 437.099 685.478L449.431 677.206L452.905 675.105Z" fill="#2F2E41"/>
<path d="M473.46 678.165C473.1 677.765 472.833 677.29 472.677 676.776C472.52 676.261 472.479 675.718 472.555 675.185C472.631 674.652 472.823 674.143 473.117 673.692C473.412 673.242 473.801 672.861 474.259 672.577L473.788 670.225L468.306 642.798L474.664 645.204L478.821 669.95L479.497 673.972C479.923 674.772 480.04 675.7 479.827 676.581C479.614 677.461 479.085 678.233 478.341 678.75C477.597 679.267 476.689 679.493 475.789 679.385C474.89 679.277 474.061 678.843 473.46 678.165Z" fill="#9E616A"/>
<path d="M466.379 615.805L470.544 612.982C470.544 612.982 474.095 612.913 474.395 619.325C474.695 625.738 475.345 638.238 475.345 638.238L480.027 666.976L471.436 668.406L466.433 637.395L462.957 628.084L466.379 615.805Z" fill="#535181"/>
<path d="M451.119 632.381L449.935 635.459L450.172 638.537L473.338 646.56L472.189 633.091L469.585 630.014L451.119 632.381Z" fill="#FFB6B6"/>
<path d="M443.776 654.986L444.53 647.443C444.609 647.135 444.782 646.86 445.027 646.657C445.271 646.454 445.573 646.334 445.89 646.313C446.204 642.72 447.527 627.218 447.606 626.542L447.609 626.514L448.21 613.668C448.232 613.202 448.425 612.76 448.752 612.427C449.079 612.093 449.518 611.892 449.984 611.862L453.16 611.654C453.203 611.653 453.244 611.634 453.275 611.603C453.305 611.572 453.322 611.53 453.322 611.486C453.322 611.135 453.391 610.788 453.525 610.464C453.659 610.14 453.856 609.846 454.104 609.598C454.352 609.35 454.647 609.153 454.971 609.019C455.295 608.885 455.642 608.815 455.993 608.815H465.396C466.005 608.816 466.593 609.038 467.049 609.441C467.506 609.844 467.8 610.4 467.876 611.004C467.88 611.046 467.9 611.084 467.931 611.112C467.962 611.14 468.003 611.155 468.045 611.154H468.046C469.114 611.132 470.155 611.494 470.98 612.173C471.804 612.853 472.358 613.806 472.54 614.859C473.825 622.339 476.402 639.314 475.128 648.751C474.684 652.037 475.64 649.435 475.808 652.183C475.825 652.449 475.789 652.715 475.702 652.967C475.616 653.219 475.481 653.451 475.304 653.65C475.665 653.782 475.96 654.05 476.124 654.397C476.289 654.744 476.31 655.142 476.182 655.505L476.348 655.464C476.299 655.656 476.213 655.836 476.095 655.995C475.977 656.154 475.828 656.288 475.658 656.39C475.488 656.492 475.3 656.559 475.104 656.587C474.908 656.616 474.708 656.606 474.516 656.558L446.978 654.068C446.17 653.864 443.572 655.794 443.776 654.986Z" fill="#535181"/>
<path opacity="0.8" d="M1106.74 510.284L1151.43 487.824L1196.12 465.363L1221.35 452.684C1222.75 451.983 1222.33 448.851 1220.94 449.553L1176.25 472.013L1131.55 494.473L1106.32 507.152C1104.93 507.854 1105.34 510.985 1106.74 510.284Z" fill="url(#paint0_linear_448_189)"/>
<path opacity="0.8" d="M1282.74 540.284L1327.43 517.824L1372.12 495.363L1397.35 482.684C1398.75 481.983 1398.33 478.851 1396.94 479.553L1352.25 502.013L1307.55 524.473L1282.32 537.152C1280.93 537.854 1281.34 540.985 1282.74 540.284Z" fill="url(#paint1_linear_448_189)"/>
<path opacity="0.8" d="M1439.74 334.284L1484.43 311.824L1529.12 289.363L1554.35 276.684C1555.75 275.983 1555.33 272.851 1553.94 273.553L1509.25 296.013L1464.55 318.473L1439.32 331.152C1437.93 331.854 1438.34 334.985 1439.74 334.284Z" fill="url(#paint2_linear_448_189)"/>
<path d="M1398.65 708.294C1352.45 708.294 1315 670.844 1315 624.647C1315 578.45 1352.45 541 1398.65 541C1444.84 541 1482.29 578.45 1482.29 624.647C1482.29 670.844 1444.84 708.294 1398.65 708.294Z" fill="#E6E6E6"/>
<path d="M1408.18 577C1402.91 577 1398.65 572.734 1398.65 567.471C1398.65 562.208 1402.91 557.941 1408.18 557.941C1413.44 557.941 1417.71 562.208 1417.71 567.471C1417.71 572.734 1413.44 577 1408.18 577Z" fill="#CBCBCB"/>
<path d="M1391.24 672.294C1385.97 672.294 1381.71 668.028 1381.71 662.765C1381.71 657.502 1385.97 653.235 1391.24 653.235C1396.5 653.235 1400.76 657.502 1400.76 662.765C1400.76 668.028 1396.5 672.294 1391.24 672.294Z" fill="#CBCBCB"/>
<path d="M1353.65 617.235C1349.85 617.235 1346.76 614.154 1346.76 610.353C1346.76 606.552 1349.85 603.471 1353.65 603.471C1357.45 603.471 1360.53 606.552 1360.53 610.353C1360.53 614.154 1357.45 617.235 1353.65 617.235Z" fill="#CBCBCB"/>
<path d="M1432 653.235C1420.01 653.235 1410.29 643.517 1410.29 631.529C1410.29 619.541 1420.01 609.823 1432 609.823C1443.99 609.823 1453.71 619.541 1453.71 631.529C1453.71 643.517 1443.99 653.235 1432 653.235Z" fill="#CBCBCB"/>
<path d="M416.673 522.52C416.667 511.386 414.184 500.392 409.405 490.337C404.626 480.281 397.669 471.414 389.04 464.378C380.41 457.343 370.324 452.315 359.511 449.66C348.699 447.004 337.431 446.787 326.524 449.024C315.617 451.261 305.345 455.896 296.451 462.594C287.556 469.291 280.264 477.883 275.1 487.748C269.937 497.612 267.033 508.501 266.598 519.627C266.163 530.752 268.208 541.835 272.585 552.072C272.512 551.99 272.436 551.911 272.363 551.829C275.697 559.6 280.319 566.753 286.035 572.985C286.052 573.004 286.069 573.022 286.086 573.041C286.548 573.544 287.011 574.044 287.486 574.533C294.346 581.688 302.558 587.409 311.647 591.364C320.736 595.319 330.52 597.428 340.431 597.571L337.894 735.345H345.731L344.145 644.412L355.481 638.444L353.752 635.159L344.072 640.255L343.328 597.564C362.933 597.114 381.584 589.011 395.291 574.986C408.998 560.962 416.672 542.13 416.673 522.52Z" fill="#0D520F"/>
<path opacity="0.2" d="M287.5 471.5C280.357 488.27 276.292 505.543 281.67 522.964C287.048 540.386 298.422 555.32 313.76 565.098C329.099 574.877 347.402 578.863 365.398 576.343C383.395 573.824 398.913 564.118 411 550.5C406.637 560.746 401.106 570.763 392.861 578.224C384.616 585.685 374.853 591.258 364.249 594.556C353.645 597.854 342.453 598.798 331.45 597.324C320.446 595.85 309.893 591.992 300.522 586.018C291.151 580.044 283.507 571.371 277.5 562C271.493 552.629 268.533 542.036 267 531C265.467 519.964 267.276 509.662 270.5 499C273.724 488.338 280.115 479.819 287.5 471.5Z" fill="black"/>
<g opacity="0.17">
<path d="M349.604 344.068C355.764 341.382 343.271 339.818 329.097 339.304C314.923 338.79 297.777 338.819 288.719 337.356C279.959 335.942 280.604 333.428 279.867 331.149C279.13 328.871 275.763 326.535 262.093 326.029C245.059 325.397 216.969 327.827 204.11 326.368C192.11 325.007 199.243 320.738 181.745 320.575C171.754 320.482 158.882 321.889 147.764 322.229C137.326 322.547 129.604 321.887 124.185 320.999C118.766 320.111 114.992 318.986 108.893 318.202C92.8814 316.143 61.5546 316.835 33.5944 319.474C5.63409 322.112 -18.333 326.437 -31.8497 330.72C-45.3663 335.003 -49.1007 339.22 -45.9522 342.796C-43.9417 345.079 -38.7968 347.215 -26.3166 348.132C-2.97327 349.848 38.5875 346.894 62.7089 348.456C76.1527 349.326 82.117 351.484 93.9126 352.664C106.585 353.933 125.136 354 143.363 353.97C181.313 353.907 220.234 353.517 259.921 352.802C276.498 352.504 293.867 352.115 311.506 350.692C329.145 349.269 347.137 346.523 350.858 343.948" fill="#616161"/>
</g>
<g opacity="0.17">
<path d="M568.604 451.068C574.764 448.382 562.271 446.818 548.097 446.304C533.923 445.79 516.777 445.819 507.719 444.356C498.959 442.942 499.604 440.428 498.867 438.149C498.13 435.871 494.763 433.535 481.093 433.029C464.059 432.397 435.969 434.827 423.11 433.368C411.11 432.007 418.243 427.738 400.745 427.575C390.754 427.482 377.882 428.889 366.764 429.229C356.326 429.547 348.604 428.887 343.185 427.999C337.766 427.111 333.992 425.986 327.893 425.202C311.881 423.143 280.555 423.835 252.594 426.474C224.634 429.112 200.667 433.437 187.15 437.72C173.634 442.003 169.899 446.22 173.048 449.796C175.058 452.079 180.203 454.215 192.683 455.132C216.027 456.848 257.588 453.894 281.709 455.456C295.153 456.326 301.117 458.484 312.913 459.664C325.585 460.933 344.136 461 362.363 460.97C400.313 460.907 439.234 460.517 478.921 459.802C495.498 459.504 512.867 459.115 530.506 457.692C548.145 456.269 566.137 453.523 569.858 450.948" fill="#616161"/>
</g>
<path d="M221.931 724.549L227.6 726.247L236.847 705.189L228.48 702.684L221.931 724.549Z" fill="#FFB8B8"/>
<path d="M221.039 722.266L232.203 725.609C234.09 726.175 235.676 727.467 236.61 729.2C237.545 730.934 237.752 732.968 237.187 734.855L237.118 735.087L218.839 729.612L221.039 722.266Z" fill="#2F2E41"/>
<path d="M275.803 729.181L281.36 727.144L276.146 704.744L267.946 707.751L275.803 729.181Z" fill="#FFB8B8"/>
<path d="M273.721 727.887L284.663 723.875C286.512 723.197 288.556 723.281 290.343 724.109C292.13 724.938 293.515 726.442 294.193 728.291L294.276 728.518L276.361 735.086L273.721 727.887Z" fill="#2F2E41"/>
<path d="M231.436 686.429L221.782 718.287L233.366 721.665L244.468 692.221L231.436 686.429Z" fill="#2F2E41"/>
<path d="M261.845 693.669L270.534 723.596L282.601 717.804L273.913 689.808L261.845 693.669Z" fill="#2F2E41"/>
<path d="M257.324 699.067C249.597 699.031 241.888 698.32 234.284 696.942L234.091 696.902V689.54L229.679 689.05L233.123 676.752C231.518 657.804 233.798 633.808 234.536 626.902C234.705 625.282 234.817 624.373 234.817 624.373L238.688 591.462L245.167 585.482L248.11 587.398L253.569 592.857C259.915 608.474 264.95 623.176 264.982 624.121L286.263 692.316L286.12 692.418C278.73 697.634 267.466 699.067 257.324 699.067Z" fill="#3F3D56"/>
<path opacity="0.2" d="M241.434 606.061L239.946 615.348L250.019 619.504L241.434 606.061Z" fill="black"/>
<path d="M261.201 585.434H237.91C237.431 585.433 236.972 585.243 236.633 584.904C236.294 584.565 236.104 584.106 236.103 583.627V573.588C236.11 570.025 237.53 566.61 240.052 564.093C242.574 561.576 245.992 560.162 249.555 560.162C253.118 560.162 256.536 561.576 259.058 564.093C261.58 566.61 263.001 570.025 263.008 573.588V583.627C263.007 584.106 262.816 584.565 262.478 584.904C262.139 585.243 261.68 585.433 261.201 585.434Z" fill="#2F2E41"/>
<path d="M252.127 584.829C257.574 584.829 261.989 580.413 261.989 574.966C261.989 569.519 257.574 565.104 252.127 565.104C246.68 565.104 242.264 569.519 242.264 574.966C242.264 580.413 246.68 584.829 252.127 584.829Z" fill="#FFB8B8"/>
<path d="M266.19 574.592H251.948L251.802 572.547L251.072 574.592H248.879L248.59 570.54L247.143 574.592H242.899V574.391C242.903 571.57 244.025 568.865 246.02 566.87C248.015 564.875 250.719 563.753 253.541 563.75H255.549C258.37 563.753 261.075 564.875 263.07 566.87C265.065 568.865 266.187 571.57 266.19 574.391V574.592Z" fill="#2F2E41"/>
<path d="M251.832 587.308C251.725 587.308 251.618 587.299 251.512 587.28L241.084 585.44V568.205H252.563L252.279 568.536C248.325 573.148 251.304 580.626 253.432 584.673C253.588 584.969 253.658 585.304 253.633 585.638C253.608 585.973 253.489 586.293 253.29 586.563C253.123 586.794 252.904 586.982 252.651 587.111C252.397 587.241 252.117 587.308 251.832 587.308Z" fill="#2F2E41"/>
<path d="M270.233 628.966H264.516C264.333 628.967 264.156 628.899 264.02 628.775C263.884 628.652 263.799 628.483 263.782 628.3L262.638 616.572H272.111L270.967 628.3C270.95 628.482 270.865 628.652 270.729 628.775C270.593 628.899 270.416 628.967 270.233 628.966Z" fill="#415380"/>
<path d="M272.096 618.048H262.653C262.457 618.048 262.27 617.97 262.132 617.831C261.993 617.693 261.916 617.506 261.915 617.31V615.539C261.916 615.344 261.993 615.156 262.132 615.018C262.27 614.88 262.457 614.802 262.653 614.802H272.096C272.291 614.802 272.479 614.88 272.617 615.018C272.756 615.156 272.833 615.344 272.834 615.539V617.31C272.833 617.506 272.756 617.693 272.617 617.831C272.479 617.97 272.291 618.048 272.096 618.048Z" fill="#2F2E41"/>
<path opacity="0.2" d="M235.056 623.92C237.681 626.959 241.242 629.04 245.178 629.836C249.114 630.632 253.204 630.097 256.803 628.315L258.949 627.253L235.056 623.92Z" fill="black"/>
<path d="M269.376 621.65C268.936 621.155 268.393 620.764 267.786 620.502C267.178 620.24 266.52 620.115 265.859 620.135C265.197 620.155 264.548 620.32 263.957 620.617C263.367 620.915 262.848 621.339 262.439 621.859L252.481 619.063L249.306 624.701L263.424 628.451C264.343 629.081 265.461 629.352 266.567 629.212C267.672 629.073 268.688 628.532 269.421 627.694C270.155 626.856 270.556 625.777 270.547 624.663C270.539 623.549 270.122 622.477 269.376 621.65Z" fill="#FFB8B8"/>
<path d="M245.612 627.906C240.878 627.906 234.472 625.13 226.867 619.753C226.443 619.46 226.085 619.081 225.815 618.642C225.545 618.203 225.37 617.712 225.299 617.201C224.738 613.648 228.205 608.843 228.544 608.383L232.188 598.376C232.23 598.213 233.405 593.884 236.353 592.343C236.974 592.025 237.656 591.845 238.353 591.815C239.05 591.785 239.745 591.907 240.39 592.171C246.006 594.216 241.621 610.006 241.019 612.077L248.459 615.579L253.184 618.591L259.654 619.267L257.897 627.397L248.071 627.618C247.266 627.815 246.441 627.912 245.612 627.906Z" fill="#3F3D56"/>
<path d="M201.059 493.154C201.052 480.484 198.227 467.974 192.788 456.53C187.35 445.087 179.434 434.997 169.613 426.991C159.793 418.984 148.315 413.263 136.011 410.241C123.706 407.219 110.884 406.972 98.472 409.517C86.0602 412.063 74.3702 417.338 64.2488 424.959C54.1275 432.581 45.8282 442.359 39.9525 453.584C34.0768 464.809 30.7717 477.201 30.2767 489.862C29.7816 502.522 32.1091 515.134 37.0904 526.784C37.0069 526.691 36.9206 526.601 36.8375 526.508C40.6317 535.351 45.8917 543.49 52.3957 550.583C52.4151 550.604 52.435 550.625 52.4545 550.646C52.9793 551.218 53.5071 551.787 54.047 552.345C61.8533 560.487 71.1992 566.997 81.5422 571.497C91.8851 575.998 103.019 578.399 114.298 578.561L111.411 735.344H120.329L118.524 631.865L131.424 625.074L129.456 621.336L118.442 627.135L117.594 578.553C139.905 578.041 161.129 568.82 176.727 552.86C192.325 536.9 201.059 515.47 201.059 493.154Z" fill="#0D520F"/>
<path opacity="0.2" d="M50.9873 441C43.2615 458.949 42.2135 479.042 48.0304 497.688C53.8474 516.335 66.1504 532.319 82.7409 542.785C99.3314 553.251 119.128 557.517 138.594 554.82C158.06 552.124 176.926 547.575 190 533C185.281 543.966 176.5 555 165 562C156.082 569.986 148.821 570.784 137.351 574.314C125.881 577.844 113.776 578.855 101.874 577.277C89.9721 575.699 78.5577 571.57 68.4218 565.176C58.2859 558.781 49.6709 550.275 43.1736 540.246C36.6764 530.216 32.4522 518.904 30.7938 507.092C29.1354 495.28 30.0825 483.252 33.5693 471.839C37.0561 460.427 42.9994 449.904 50.9873 441Z" fill="black"/>
<path d="M189.865 417.908H190.173L195.71 735.344H184.021L189.865 417.908Z" fill="#1F0F01"/>
<path d="M207.673 585.914L189.165 595.658L191.744 600.557L210.252 590.813L207.673 585.914Z" fill="#1F0F01"/>
<path d="M399.81 732.375C399.81 732.375 400.214 723.91 408.495 724.894L399.81 732.375Z" fill="#3F3D56"/>
<path d="M397.47 724.32C399.759 724.32 401.615 722.464 401.615 720.175C401.615 717.886 399.759 716.03 397.47 716.03C395.181 716.03 393.326 717.886 393.326 720.175C393.326 722.464 395.181 724.32 397.47 724.32Z" fill="#415380"/>
<path d="M397.966 727.154H396.796V735.344H397.966V727.154Z" fill="#3F3D56"/>
<path d="M112.589 731.205C112.589 731.205 112.993 722.74 121.274 723.724L112.589 731.205Z" fill="#3F3D56"/>
<path d="M110.249 723.15C112.538 723.15 114.394 721.294 114.394 719.005C114.394 716.716 112.538 714.86 110.249 714.86C107.96 714.86 106.104 716.716 106.104 719.005C106.104 721.294 107.96 723.15 110.249 723.15Z" fill="#415380"/>
<path d="M110.744 725.984H109.574V734.174H110.744V725.984Z" fill="#3F3D56"/>
<path d="M180.446 731.79C180.446 731.79 180.85 723.325 189.131 724.309L180.446 731.79Z" fill="#3F3D56"/>
<path d="M178.106 723.735C180.395 723.735 182.25 721.879 182.25 719.59C182.25 717.301 180.395 715.445 178.106 715.445C175.817 715.445 173.961 717.301 173.961 719.59C173.961 721.879 175.817 723.735 178.106 723.735Z" fill="#415380"/>
<path d="M178.601 726.569H177.431V734.759H178.601V726.569Z" fill="#3F3D56"/>
<path d="M513.222 735.447C513.222 735.447 513.626 726.982 521.907 727.966L513.222 735.447Z" fill="#3F3D56"/>
<path d="M435.421 735.447C435.421 735.447 435.825 726.982 444.106 727.966L435.421 735.447Z" fill="#3F3D56"/>
<path d="M151.709 735.447C151.709 735.447 152.113 726.982 160.394 727.966L151.709 735.447Z" fill="#3F3D56"/>
<path d="M548.32 735.447C548.32 735.447 548.724 726.982 557.005 727.966L548.32 735.447Z" fill="#3F3D56"/>
<path d="M531.941 735.447C531.941 735.447 532.345 726.982 540.626 727.966L531.941 735.447Z" fill="#3F3D56"/>
<path d="M498.153 735.447C498.153 735.447 497.749 726.982 489.468 727.966L498.153 735.447Z" fill="#3F3D56"/>
<path d="M363.61 735.447C363.61 735.447 363.206 726.982 354.925 727.966L363.61 735.447Z" fill="#3F3D56"/>
<path d="M251.88 735.447C251.88 735.447 251.476 726.982 243.195 727.966L251.88 735.447Z" fill="#3F3D56"/>
<path d="M133.131 735.447C133.131 735.447 132.727 726.982 124.446 727.966L133.131 735.447Z" fill="#3F3D56"/>
<path d="M583.56 735.447C583.56 735.447 583.156 726.982 574.875 727.966L583.56 735.447Z" fill="#3F3D56"/>
<path d="M533.252 736.032C533.252 736.032 532.848 727.567 524.567 728.551L533.252 736.032Z" fill="#3F3D56"/>
<path d="M646 734.34H69V735.639H646V734.34Z" fill="#3F3D56"/>
<path d="M614.229 363.16L622.414 354.127C616.056 353.159 613.443 357.944 612.374 361.731C607.407 358.885 602 362.615 602 362.615L618.375 370.818C617.549 367.774 616.111 365.117 614.229 363.16Z" fill="#616161"/>
<g opacity="0.17">
<path d="M1372.6 372.068C1378.76 369.382 1366.27 367.818 1352.1 367.304C1337.92 366.79 1320.78 366.819 1311.72 365.356C1302.96 363.942 1303.6 361.428 1302.87 359.149C1302.13 356.871 1298.76 354.535 1285.09 354.029C1268.06 353.397 1239.97 355.827 1227.11 354.368C1215.11 353.007 1222.24 348.738 1204.75 348.575C1194.75 348.482 1181.88 349.889 1170.76 350.229C1160.33 350.547 1152.6 349.887 1147.19 348.999C1141.77 348.111 1137.99 346.986 1131.89 346.202C1115.88 344.143 1084.55 344.835 1056.59 347.474C1028.63 350.112 1004.67 354.437 991.15 358.72C977.634 363.003 973.899 367.22 977.048 370.796C979.058 373.079 984.203 375.215 996.683 376.132C1020.03 377.848 1061.59 374.894 1085.71 376.456C1099.15 377.326 1105.12 379.484 1116.91 380.664C1129.59 381.933 1148.14 382 1166.36 381.97C1204.31 381.907 1243.23 381.517 1282.92 380.802C1299.5 380.504 1316.87 380.115 1334.51 378.692C1352.15 377.269 1370.14 374.523 1373.86 371.948" fill="#616161"/>
</g>
<g opacity="0.17">
<path d="M1656.6 185.068C1662.76 182.382 1650.27 180.818 1636.1 180.304C1621.92 179.79 1604.78 179.819 1595.72 178.356C1586.96 176.942 1587.6 174.428 1586.87 172.149C1586.13 169.871 1582.76 167.535 1569.09 167.029C1552.06 166.397 1523.97 168.827 1511.11 167.368C1499.11 166.007 1506.24 161.738 1488.75 161.575C1478.75 161.482 1465.88 162.889 1454.76 163.229C1444.33 163.547 1436.6 162.887 1431.19 161.999C1425.77 161.111 1421.99 159.986 1415.89 159.202C1399.88 157.143 1368.55 157.835 1340.59 160.474C1312.63 163.112 1288.67 167.437 1275.15 171.72C1261.63 176.003 1257.9 180.22 1261.05 183.796C1263.06 186.079 1268.2 188.215 1280.68 189.132C1304.03 190.848 1345.59 187.894 1369.71 189.456C1383.15 190.326 1389.12 192.484 1400.91 193.664C1413.59 194.933 1432.14 195 1450.36 194.97C1488.31 194.907 1527.23 194.517 1566.92 193.802C1583.5 193.504 1600.87 193.115 1618.51 191.692C1636.15 190.269 1654.14 187.523 1657.86 184.948" fill="#616161"/>
</g>
<g opacity="0.17">
<path d="M1676.6 451.068C1682.76 448.382 1670.27 446.818 1656.1 446.304C1641.92 445.79 1624.78 445.819 1615.72 444.356C1606.96 442.942 1607.6 440.428 1606.87 438.149C1606.13 435.871 1602.76 433.535 1589.09 433.029C1572.06 432.397 1543.97 434.827 1531.11 433.368C1519.11 432.007 1526.24 427.738 1508.75 427.575C1498.75 427.482 1485.88 428.889 1474.76 429.229C1464.33 429.547 1456.6 428.887 1451.19 427.999C1445.77 427.111 1441.99 425.986 1435.89 425.202C1419.88 423.143 1388.55 423.835 1360.59 426.474C1332.63 429.112 1308.67 433.437 1295.15 437.72C1281.63 442.003 1277.9 446.22 1281.05 449.796C1283.06 452.079 1288.2 454.215 1300.68 455.132C1324.03 456.848 1365.59 453.894 1389.71 455.456C1403.15 456.326 1409.12 458.484 1420.91 459.664C1433.59 460.933 1452.14 461 1470.36 460.97C1508.31 460.907 1547.23 460.517 1586.92 459.802C1603.5 459.504 1620.87 459.115 1638.51 457.692C1656.15 456.269 1674.14 453.523 1677.86 450.948" fill="#616161"/>
</g>
<path d="M358.002 488.428L355.696 490.303C356.476 489.646 357.287 489.031 358.12 488.449C358.081 488.442 358.042 488.435 358.002 488.428Z" fill="#F2F2F2"/>
<path d="M375.917 326.834C376.975 326.834 377.834 325.975 377.834 324.917C377.834 323.858 376.975 323 375.917 323C374.858 323 374 323.858 374 324.917C374 325.975 374.858 326.834 375.917 326.834Z" fill="#9C9C9C"/>
<path d="M550.917 239.834C551.975 239.834 552.834 238.975 552.834 237.917C552.834 236.858 551.975 236 550.917 236C549.858 236 549 236.858 549 237.917C549 238.975 549.858 239.834 550.917 239.834Z" fill="#616161"/>
<path d="M1162.45 262.198C1164.22 262.198 1165.65 260.768 1165.65 259.003C1165.65 257.239 1164.22 255.809 1162.45 255.809C1160.69 255.809 1159.26 257.239 1159.26 259.003C1159.26 260.768 1160.69 262.198 1162.45 262.198Z" fill="#616161"/>
<path d="M1438.47 251.336C1439.53 251.336 1440.38 250.478 1440.38 249.42C1440.38 248.361 1439.53 247.503 1438.47 247.503C1437.41 247.503 1436.55 248.361 1436.55 249.42C1436.55 250.478 1437.41 251.336 1438.47 251.336Z" fill="#616161"/>
<path d="M1095.37 193.834C1096.43 193.834 1097.28 192.975 1097.28 191.917C1097.28 190.858 1096.43 190 1095.37 190C1094.31 190 1093.45 190.858 1093.45 191.917C1093.45 192.975 1094.31 193.834 1095.37 193.834Z" fill="#616161"/>
<path d="M1076.2 271.143C1077.26 271.143 1078.12 270.285 1078.12 269.226C1078.12 268.168 1077.26 267.31 1076.2 267.31C1075.14 267.31 1074.28 268.168 1074.28 269.226C1074.28 270.285 1075.14 271.143 1076.2 271.143Z" fill="#9C9C9C"/>
<path d="M982.917 251.415C983.975 251.415 984.834 250.556 984.834 249.498C984.834 248.439 983.975 247.581 982.917 247.581C981.858 247.581 981 248.439 981 249.498C981 250.556 981.858 251.415 982.917 251.415Z" fill="#616161"/>
<path d="M1313.24 267.309C1314.3 267.309 1315.16 266.451 1315.16 265.392C1315.16 264.334 1314.3 263.476 1313.24 263.476C1312.18 263.476 1311.32 264.334 1311.32 265.392C1311.32 266.451 1312.18 267.309 1313.24 267.309Z" fill="#9C9C9C"/>
<path d="M1509.39 205.334C1510.45 205.334 1511.3 204.475 1511.3 203.417C1511.3 202.358 1510.45 201.5 1509.39 201.5C1508.33 201.5 1507.47 202.358 1507.47 203.417C1507.47 204.475 1508.33 205.334 1509.39 205.334Z" fill="#616161"/>
<path d="M144.454 207.617C146.218 207.617 147.648 206.186 147.648 204.422C147.648 202.658 146.218 201.228 144.454 201.228C142.69 201.228 141.259 202.658 141.259 204.422C141.259 206.186 142.69 207.617 144.454 207.617Z" fill="#616161"/>
<path d="M781.468 116.336C782.526 116.336 783.385 115.478 783.385 114.42C783.385 113.361 782.526 112.503 781.468 112.503C780.409 112.503 779.551 113.361 779.551 114.42C779.551 115.478 780.409 116.336 781.468 116.336Z" fill="#616161"/>
<path d="M438.367 58.8335C439.426 58.8335 440.284 57.9754 440.284 56.9168C440.284 55.8582 439.426 55 438.367 55C437.308 55 436.45 55.8582 436.45 56.9168C436.45 57.9754 437.308 58.8335 438.367 58.8335Z" fill="#616161"/>
<path d="M58.1992 216.562C59.2578 216.562 60.116 215.704 60.116 214.645C60.116 213.587 59.2578 212.729 58.1992 212.729C57.1406 212.729 56.2825 213.587 56.2825 214.645C56.2825 215.704 57.1406 216.562 58.1992 216.562Z" fill="#616161"/>
<path d="M295.239 212.728C296.298 212.728 297.156 211.87 297.156 210.811C297.156 209.753 296.298 208.895 295.239 208.895C294.181 208.895 293.323 209.753 293.323 210.811C293.323 211.87 294.181 212.728 295.239 212.728Z" fill="#616161"/>
<path d="M852.388 70.3335C853.447 70.3335 854.305 69.4754 854.305 68.4168C854.305 67.3582 853.447 66.5 852.388 66.5C851.33 66.5 850.471 67.3582 850.471 68.4168C850.471 69.4754 851.33 70.3335 852.388 70.3335Z" fill="#616161"/>
<path d="M306.03 542.83C303.602 538.336 303.263 532.445 306.244 528.296C307.718 533.652 311.04 538.314 315.62 541.457C317.391 542.663 319.487 543.82 320.093 545.875C320.411 547.185 320.215 548.567 319.544 549.737C318.874 550.891 318.059 551.955 317.119 552.902L317.033 553.224C312.639 550.62 308.458 547.325 306.03 542.83Z" fill="#012502"/>
<path d="M997.921 701.535C995.494 697.04 995.155 691.149 998.136 687C999.61 692.356 1002.93 697.018 1007.51 700.161C1009.28 701.367 1011.38 702.524 1011.98 704.579C1012.3 705.889 1012.11 707.271 1011.44 708.441C1010.77 709.595 1009.95 710.659 1009.01 711.607L1008.92 711.928C1004.53 709.324 1000.35 706.029 997.921 701.535Z" fill="#0D520F"/>
<path d="M453.921 549.535C451.494 545.04 451.155 539.149 454.136 535C455.61 540.356 458.931 545.018 463.512 548.161C465.283 549.367 467.378 550.524 467.984 552.579C468.303 553.889 468.106 555.271 467.435 556.441C466.766 557.595 465.951 558.659 465.011 559.607L464.925 559.928C460.53 557.324 456.349 554.029 453.921 549.535Z" fill="#0D520F"/>
<path d="M271.834 639.947C269.407 635.452 269.068 629.561 272.048 625.412C273.523 630.768 276.844 635.43 281.425 638.573C283.196 639.779 285.291 640.936 285.897 642.991C286.215 644.301 286.019 645.683 285.348 646.853C284.678 648.007 283.864 649.071 282.923 650.019L282.838 650.34C278.443 647.736 274.262 644.442 271.834 639.947Z" fill="#012502"/>
<path d="M1287.92 494.535C1285.49 490.04 1285.15 484.149 1288.14 480C1289.61 485.356 1292.93 490.018 1297.51 493.161C1299.28 494.367 1301.38 495.524 1301.98 497.579C1302.3 498.889 1302.11 500.271 1301.44 501.441C1300.77 502.595 1299.95 503.659 1299.01 504.607L1298.92 504.928C1294.53 502.324 1290.35 499.029 1287.92 494.535Z" fill="#0D520F"/>
<path d="M1610.77 653.258L1622 644.128C1613.28 643.149 1609.7 647.986 1608.23 651.814C1601.42 648.937 1594 652.708 1594 652.708L1616.46 661C1615.33 657.922 1613.35 655.237 1610.77 653.258Z" fill="#3F3D56"/>
<rect width="90" height="87" transform="matrix(-1 0 0 -1 1602 782)" fill="#415380"/>
<path d="M1468.1 822C1486.51 822 1504.89 821.713 1523.24 821.139C1549.46 820.319 1576.57 819.472 1601.78 807.301C1619.41 798.788 1635.02 785.13 1646.93 767.802C1654.79 756.281 1660.64 743.508 1664.24 730.025C1666 723.539 1667.27 716.931 1668.06 710.255C1670.2 692.22 1668.68 673.937 1663.59 656.508C1661.11 648.167 1657.74 640.122 1653.53 632.512C1635.15 599.375 1601.63 577.13 1561.56 571.483C1561.23 571.446 1560.89 571.439 1560.56 571.464C1560.38 571.473 1560.2 571.482 1560.02 571.475L1559.78 571.41C1559.17 571.226 1558.55 571.088 1557.93 570.995C1496.13 562.985 1430.8 579.193 1369 617.865C1321.23 647.77 1257.9 663.874 1175.42 667.096L1174.25 667.149C1151.29 668.298 1129.08 676.54 1110.02 690.986C1091.4 704.989 1077.21 724.094 1069.17 745.999C1068.2 748.648 1067.31 751.406 1066.52 754.195C1065.03 759.471 1066.76 764.802 1071.26 768.86V768.865L1071.46 769.049C1071.96 769.477 1072.48 769.888 1073.01 770.27L1073.64 770.719C1078.91 774.499 1083.07 777.486 1088.05 779.805C1091.42 781.355 1094.94 782.515 1098.57 783.263C1118.67 787.53 1139.08 791.485 1159.24 795.021C1198.38 801.893 1238.56 807.562 1278.65 811.87C1341.57 818.622 1404.81 822.003 1468.1 822ZM1561.03 572.638C1561.15 572.637 1561.28 572.644 1561.4 572.66C1601.09 578.254 1634.3 600.28 1652.49 633.09C1656.66 640.624 1660 648.59 1662.45 656.848C1667.5 674.122 1669.01 692.242 1666.88 710.116C1666.1 716.733 1664.84 723.283 1663.09 729.712C1659.53 743.066 1653.74 755.717 1645.95 767.128C1634.16 784.286 1618.71 797.807 1601.26 806.23C1576.29 818.292 1549.3 819.136 1523.2 819.951C1441.61 822.492 1359.94 819.397 1278.78 810.689C1238.71 806.384 1198.56 800.719 1159.44 793.851C1139.3 790.318 1118.9 786.365 1098.82 782.101C1095.28 781.372 1091.83 780.24 1088.55 778.728C1083.67 776.455 1079.55 773.497 1074.32 769.753L1073.7 769.304C1073.24 768.975 1072.79 768.624 1072.36 768.258L1072.24 768.146C1067.95 764.381 1066.28 759.414 1067.66 754.518C1068.44 751.759 1069.32 749.03 1070.28 746.407C1086.45 702.013 1128.25 670.639 1174.31 668.336L1175.47 668.283C1213.15 666.81 1246.12 662.733 1276.26 655.816C1312.25 647.559 1343.66 635.129 1369.63 618.872C1431.19 580.348 1496.25 564.201 1557.78 572.173C1558.35 572.259 1558.91 572.386 1559.47 572.555L1559.89 572.658C1560.14 572.671 1560.38 572.662 1560.62 572.651C1560.76 572.644 1560.9 572.638 1561.03 572.638Z" fill="#415380"/>
<path d="M1246 721.429V721.434C1246.48 721.848 1246.98 722.244 1247.51 722.617C1256.21 728.83 1262.15 733.186 1272.86 735.45C1293.02 739.707 1313.24 743.606 1333.55 747.149C1373.15 754.066 1412.97 759.654 1453 763.914C1534.24 772.6 1615.99 775.682 1697.66 773.136C1724.86 772.291 1751.09 771.392 1776.01 759.421C1794.23 750.672 1809.53 736.846 1820.96 720.305C1832.55 703.535 1839.6 683.69 1842 663.295C1836.36 660.839 1830.36 659.283 1824.23 658.684C1802.96 656.663 1782.03 664.43 1762.69 673.469C1743.34 682.502 1724.34 693.06 1703.39 697.227C1672.52 703.369 1640.65 695.016 1611.05 684.322C1581.45 673.629 1552.31 660.422 1521.1 656.385C1479.23 650.964 1437.22 662.438 1396.56 673.8C1353.26 685.901 1309.95 698.003 1266.64 710.108C1260.45 711.834 1254.03 713.685 1249.21 717.917C1248.01 718.965 1246.93 720.143 1246 721.429Z" fill="#1C212C"/>
<path d="M1072.26 768.432V768.438C1072.74 768.853 1073.25 769.25 1073.77 769.623C1079.22 773.521 1083.59 776.696 1088.72 779.077C1106.36 780.813 1124.03 782.315 1141.72 783.585C1187.24 786.849 1232.86 788.585 1278.57 788.792C1371.29 789.266 1468.78 792.169 1549.97 747.149C1576.98 732.169 1616.11 762.888 1642.87 746.462C1650.59 741.711 1657.76 736.127 1664.25 729.81C1666 723.37 1667.27 716.808 1668.05 710.179C1670.2 692.273 1668.69 674.117 1663.6 656.813C1661.14 648.535 1657.79 640.55 1653.59 633C1641.16 637.461 1629.24 643.882 1617.89 650.682C1597.08 663.14 1576.84 677.285 1553.66 684.417C1519.5 694.932 1482.54 689.15 1447.87 680.454C1413.21 671.758 1378.77 660.172 1343.04 659.194C1295.13 657.885 1249 675.721 1204.4 693.273C1159.65 710.884 1114.9 728.493 1070.14 746.1C1069.16 748.772 1068.28 751.483 1067.5 754.233C1065.92 759.825 1068.22 764.89 1072.26 768.432Z" fill="#252B38"/>
<path d="M1508.07 541.482C1514.83 536.934 1514.16 526.982 1507.01 523.071C1506.87 522.991 1506.73 522.909 1506.59 522.824C1506.23 521.111 1505.87 519.399 1505.51 517.686C1503.4 519.873 1499.26 519.46 1497.62 516.901C1503.32 504.765 1510.82 493.552 1519.86 483.64C1521.83 481.469 1522.94 478.652 1522.97 475.723C1523 472.793 1521.96 469.953 1520.03 467.74C1520 467.7 1519.96 467.659 1519.93 467.618C1514.82 465.897 1509.99 463.461 1505.57 460.382C1520.72 436.086 1549.62 416.785 1556.49 389C1577.15 411.143 1579.47 418.942 1600.13 441.085C1600.13 441.085 1619.7 458.702 1623.92 468.171C1622.88 469.258 1613.59 471.868 1613.23 474.007C1606.15 474.574 1593.88 466.825 1593.88 466.825C1593.88 466.825 1620.67 495.325 1628.8 512.88C1629.53 514.461 1630.23 516.266 1629.61 517.897C1629.12 519.198 1627.37 519.949 1626.23 519.432C1627.59 520.733 1628.67 522.284 1629.43 523.999C1627.07 525.503 1624.27 526.169 1621.48 525.889C1618.7 525.609 1616.09 524.399 1614.08 522.456C1615.21 524.568 1616.34 526.68 1617.47 528.792L1617.47 528.797C1615.94 529.296 1614.57 530.185 1613.49 531.376C1612.41 532.567 1611.66 534.019 1611.31 535.588C1610.96 537.157 1611.03 538.789 1611.51 540.323C1611.99 541.857 1612.86 543.24 1614.04 544.335C1621.07 550.859 1627.49 557.717 1629.85 562.234C1632.06 566.483 1609.33 571.604 1604.21 571.394C1599.1 571.184 1594.32 568.942 1589.7 566.741C1589.93 568.843 1589.52 570.964 1588.54 572.838C1586.02 573.45 1583.39 573.552 1580.82 573.138C1578.25 572.723 1575.79 571.8 1573.58 570.424C1573.79 574.627 1568.47 576.948 1564.79 575.757C1566.63 604.821 1565.28 645.633 1563.51 688H1559.12V577.433C1557.96 578.023 1556.71 578.438 1555.42 578.662C1546.44 580.253 1535.61 581.22 1529.76 574.233C1523.04 580.999 1510.72 580.871 1504.03 574.128C1504.69 575.292 1503.68 577.249 1502.19 577.557C1500.44 577.921 1498.73 576.88 1497.24 575.886C1490.49 571.384 1483.75 566.883 1477 562.381C1485.33 556.78 1497.15 548.823 1508.07 541.482Z" fill="#0D520F"/>
<path d="M1124.07 612.482C1130.83 607.934 1130.16 597.982 1123.01 594.071C1122.87 593.991 1122.73 593.909 1122.59 593.824C1122.23 592.111 1121.87 590.399 1121.51 588.686C1119.4 590.873 1115.26 590.46 1113.62 587.901C1119.32 575.765 1126.82 564.552 1135.86 554.64C1137.83 552.469 1138.94 549.652 1138.97 546.723C1139 543.793 1137.96 540.953 1136.03 538.74C1136 538.7 1135.96 538.659 1135.93 538.618C1130.82 536.897 1125.99 534.461 1121.57 531.382C1136.72 507.086 1165.62 487.785 1172.49 460C1193.15 482.143 1195.47 489.942 1216.13 512.085C1216.13 512.085 1235.7 529.703 1239.92 539.171C1238.88 540.258 1229.59 542.868 1229.23 545.007C1222.15 545.574 1209.88 537.825 1209.88 537.825C1209.88 537.825 1236.67 566.325 1244.8 583.88C1245.53 585.461 1246.23 587.266 1245.61 588.897C1245.12 590.198 1243.37 590.949 1242.23 590.432C1243.59 591.733 1244.67 593.284 1245.43 594.999C1243.07 596.503 1240.27 597.169 1237.48 596.889C1234.7 596.609 1232.09 595.399 1230.08 593.456C1231.21 595.568 1232.34 597.68 1233.47 599.792L1233.47 599.797C1231.94 600.296 1230.57 601.185 1229.49 602.376C1228.41 603.567 1227.66 605.019 1227.31 606.588C1226.96 608.157 1227.03 609.789 1227.51 611.323C1227.99 612.857 1228.86 614.24 1230.04 615.335C1237.07 621.859 1243.49 628.717 1245.85 633.234C1248.06 637.483 1225.33 642.604 1220.21 642.394C1215.1 642.184 1210.32 639.942 1205.7 637.741C1205.93 639.843 1205.52 641.964 1204.54 643.838C1202.02 644.45 1199.39 644.552 1196.82 644.138C1194.25 643.723 1191.79 642.8 1189.58 641.424C1189.79 645.627 1184.47 647.948 1180.79 646.757C1182.63 675.821 1181.28 716.633 1179.51 759H1175.12V648.433C1173.96 649.023 1172.71 649.438 1171.42 649.662C1162.44 651.253 1151.61 652.22 1145.76 645.233C1139.04 651.999 1126.72 651.871 1120.03 645.128C1120.69 646.292 1119.68 648.249 1118.19 648.557C1116.44 648.921 1114.73 647.88 1113.24 646.886C1106.49 642.384 1099.75 637.883 1093 633.381C1101.33 627.78 1113.15 619.823 1124.07 612.482Z" fill="#0D520F"/>
<path d="M1537.52 721.692C1537.07 721.713 1536.64 721.597 1536.26 721.36C1535.89 721.123 1535.6 720.777 1535.43 720.369C1535.26 719.96 1535.22 719.509 1535.31 719.077C1535.4 718.644 1535.63 718.251 1535.95 717.95C1536.01 717.734 1536.05 717.579 1536.1 717.362C1536.08 717.315 1536.06 717.268 1536.04 717.221C1535.6 716.169 1534.85 715.271 1533.9 714.642C1532.95 714.013 1531.83 713.679 1530.69 713.683C1529.55 713.688 1528.44 714.029 1527.49 714.666C1526.54 715.302 1525.8 716.205 1525.37 717.261C1523.62 721.474 1521.4 725.694 1520.85 730.148C1520.61 732.117 1520.71 734.113 1521.15 736.048C1517.05 727.085 1514.92 717.345 1514.91 707.486C1514.91 705.012 1515.04 702.539 1515.32 700.081C1515.55 698.065 1515.86 696.064 1516.26 694.077C1518.46 683.297 1523.18 673.192 1530.03 664.593C1533.35 662.78 1536.03 659.992 1537.72 656.605C1538.33 655.387 1538.76 654.087 1539 652.746C1538.63 652.795 1538.25 652.826 1537.87 652.85C1537.75 652.856 1537.63 652.863 1537.52 652.869L1537.47 652.871C1537.06 652.889 1536.65 652.788 1536.3 652.58C1535.94 652.372 1535.65 652.065 1535.47 651.697C1535.28 651.328 1535.21 650.914 1535.25 650.504C1535.3 650.094 1535.46 649.706 1535.72 649.386C1535.88 649.187 1536.04 648.987 1536.2 648.788C1536.45 648.481 1536.7 648.18 1536.95 647.873C1536.97 647.844 1537 647.813 1537.03 647.781C1537.31 647.43 1537.59 647.086 1537.87 646.736C1537.36 645.935 1536.66 645.264 1535.85 644.776C1533.02 643.117 1529.12 644.266 1527.08 646.828C1525.03 649.391 1524.64 652.986 1525.35 656.187C1526.05 658.911 1527.21 661.496 1528.78 663.831C1528.62 664.028 1528.46 664.219 1528.31 664.415C1525.51 668.026 1523.06 671.904 1521.02 675.993C1521.51 671.412 1520.92 666.779 1519.28 662.473C1517.62 658.461 1514.51 655.082 1511.77 651.613C1508.48 647.447 1501.73 649.265 1501.15 654.547C1501.14 654.598 1501.14 654.649 1501.13 654.7C1501.54 654.93 1501.94 655.174 1502.33 655.432C1502.82 655.76 1503.2 656.229 1503.42 656.776C1503.64 657.324 1503.68 657.925 1503.56 658.501C1503.43 659.077 1503.13 659.601 1502.7 660.005C1502.27 660.408 1501.73 660.672 1501.15 660.762L1501.09 660.771C1501.23 662.241 1501.49 663.697 1501.86 665.128C1502.91 669.122 1504.79 672.854 1507.35 676.09C1509.92 679.326 1513.12 681.995 1516.77 683.932C1517.01 684.055 1517.24 684.178 1517.48 684.294C1516.38 687.393 1515.5 690.566 1514.85 693.788C1514.27 696.63 1513.87 699.505 1513.64 702.398C1513.36 706.041 1513.38 709.701 1513.69 713.342L1513.67 713.213C1512.88 709.164 1510.73 705.511 1507.57 702.871C1502.87 699.005 1496.23 697.582 1491.17 694.475C1490.63 694.129 1490 693.944 1489.36 693.942C1488.72 693.941 1488.1 694.123 1487.56 694.466C1487.02 694.81 1486.59 695.301 1486.31 695.882C1486.04 696.463 1485.95 697.11 1486.03 697.745C1486.04 697.791 1486.04 697.836 1486.05 697.881C1486.81 698.189 1487.54 698.544 1488.25 698.944C1488.66 699.174 1489.06 699.418 1489.45 699.676C1489.94 700.004 1490.32 700.473 1490.54 701.02C1490.76 701.568 1490.8 702.169 1490.68 702.745C1490.55 703.321 1490.25 703.845 1489.82 704.249C1489.39 704.652 1488.85 704.916 1488.27 705.006L1488.21 705.015C1488.17 705.021 1488.13 705.028 1488.09 705.034C1489.38 708.121 1491.19 710.962 1493.44 713.434C1496.22 716.426 1499.59 718.816 1503.32 720.459C1507.06 722.103 1511.1 722.963 1515.18 722.989H1515.18C1516.29 727.813 1517.9 732.509 1519.97 737H1537.09C1537.15 736.81 1537.2 736.613 1537.26 736.422C1535.67 736.522 1534.08 736.427 1532.52 736.14C1533.79 734.579 1535.06 733.006 1536.33 731.445C1536.36 731.416 1536.39 731.385 1536.41 731.353C1537.06 730.554 1537.71 729.761 1538.35 728.962L1538.35 728.961C1538.38 726.513 1538.1 724.07 1537.52 721.693L1537.52 721.692Z" fill="#0D520F"/>
<path d="M1125.52 742.857C1125.07 742.877 1124.64 742.762 1124.26 742.528C1123.89 742.294 1123.6 741.952 1123.43 741.547C1123.26 741.143 1123.22 740.697 1123.31 740.269C1123.4 739.841 1123.63 739.452 1123.95 739.155C1124.01 738.941 1124.05 738.787 1124.1 738.573C1124.08 738.527 1124.06 738.48 1124.04 738.434C1123.6 737.393 1122.85 736.505 1121.9 735.883C1120.95 735.26 1119.83 734.93 1118.69 734.934C1117.55 734.938 1116.44 735.277 1115.49 735.906C1114.54 736.536 1113.8 737.429 1113.37 738.473C1111.62 742.641 1109.4 746.815 1108.85 751.222C1108.61 753.17 1108.71 755.144 1109.15 757.058C1105.05 748.192 1102.92 738.556 1102.91 728.803C1102.91 726.356 1103.04 723.91 1103.32 721.478C1103.55 719.484 1103.86 717.504 1104.26 715.539C1106.46 704.874 1111.18 694.878 1118.03 686.372C1121.35 684.578 1124.03 681.82 1125.72 678.469C1126.33 677.265 1126.76 675.979 1127 674.652C1126.63 674.7 1126.25 674.731 1125.87 674.755C1125.75 674.761 1125.63 674.767 1125.52 674.773L1125.47 674.775C1125.06 674.794 1124.65 674.694 1124.3 674.488C1123.94 674.282 1123.65 673.978 1123.47 673.614C1123.28 673.25 1123.21 672.84 1123.25 672.434C1123.3 672.029 1123.46 671.645 1123.72 671.328C1123.88 671.131 1124.04 670.934 1124.2 670.737C1124.45 670.433 1124.7 670.135 1124.95 669.831C1124.97 669.802 1125 669.772 1125.03 669.74C1125.31 669.394 1125.59 669.053 1125.87 668.707C1125.36 667.914 1124.66 667.251 1123.85 666.767C1121.02 665.126 1117.12 666.263 1115.08 668.798C1113.03 671.333 1112.64 674.889 1113.35 678.056C1114.05 680.751 1115.21 683.308 1116.78 685.618C1116.62 685.813 1116.46 686.001 1116.31 686.196C1113.51 689.768 1111.06 693.604 1109.02 697.649C1109.51 693.117 1108.92 688.534 1107.28 684.275C1105.62 680.306 1102.51 676.963 1099.77 673.531C1096.48 669.41 1089.73 671.208 1089.15 676.433C1089.14 676.484 1089.14 676.534 1089.13 676.585C1089.54 676.812 1089.94 677.054 1090.33 677.31C1090.82 677.634 1091.2 678.097 1091.42 678.639C1091.64 679.18 1091.68 679.775 1091.56 680.345C1091.43 680.915 1091.13 681.433 1090.7 681.833C1090.27 682.232 1089.73 682.493 1089.15 682.582L1089.09 682.591C1089.23 684.045 1089.49 685.486 1089.86 686.901C1090.91 690.852 1092.79 694.544 1095.35 697.745C1097.92 700.946 1101.12 703.587 1104.77 705.502C1105.01 705.624 1105.24 705.746 1105.48 705.861C1103.42 711.64 1102.13 717.66 1101.64 723.77C1101.36 727.374 1101.38 730.995 1101.69 734.596L1101.67 734.468C1100.88 730.464 1098.73 726.85 1095.57 724.238C1090.87 720.414 1084.23 719.006 1079.17 715.932C1078.63 715.59 1078 715.407 1077.36 715.405C1076.72 715.404 1076.1 715.584 1075.56 715.924C1075.02 716.264 1074.59 716.75 1074.31 717.325C1074.04 717.899 1073.95 718.539 1074.03 719.167C1074.04 719.212 1074.04 719.257 1074.05 719.302C1074.81 719.606 1075.54 719.958 1076.25 720.353C1076.66 720.581 1077.06 720.822 1077.45 721.078C1077.94 721.402 1078.32 721.865 1078.54 722.407C1078.76 722.949 1078.8 723.543 1078.68 724.113C1078.55 724.683 1078.25 725.202 1077.82 725.601C1077.39 726 1076.85 726.261 1076.27 726.35L1076.21 726.359C1076.17 726.365 1076.13 726.371 1076.09 726.377C1077.38 729.431 1079.19 732.242 1081.44 734.687C1084.22 737.647 1087.59 740.012 1091.32 741.637C1095.06 743.263 1099.1 744.114 1103.18 744.14H1103.18C1104.29 748.912 1105.9 753.557 1107.97 758H1125.09C1125.15 757.812 1125.2 757.617 1125.26 757.429C1123.67 757.527 1122.08 757.433 1120.52 757.149C1121.79 755.605 1123.06 754.049 1124.33 752.505C1124.36 752.476 1124.39 752.445 1124.41 752.413C1125.06 751.623 1125.71 750.839 1126.35 750.049L1126.35 750.048C1126.38 747.625 1126.1 745.208 1125.52 742.857Z" fill="#0D520F"/>
<path d="M1300.52 692.857C1300.07 692.877 1299.64 692.762 1299.26 692.528C1298.89 692.294 1298.6 691.951 1298.43 691.547C1298.26 691.143 1298.22 690.697 1298.31 690.269C1298.4 689.841 1298.63 689.452 1298.95 689.155C1299.01 688.941 1299.05 688.787 1299.1 688.573C1299.08 688.527 1299.06 688.48 1299.04 688.434C1298.6 687.393 1297.85 686.505 1296.9 685.882C1295.95 685.26 1294.83 684.93 1293.69 684.934C1292.55 684.938 1291.44 685.276 1290.49 685.906C1289.54 686.536 1288.8 687.429 1288.37 688.473C1286.62 692.641 1284.4 696.815 1283.85 701.222C1283.61 703.17 1283.71 705.144 1284.15 707.058C1280.05 698.192 1277.92 688.556 1277.91 678.803C1277.91 676.356 1278.04 673.91 1278.32 671.478C1278.55 669.484 1278.86 667.504 1279.26 665.539C1281.46 654.874 1286.18 644.878 1293.03 636.372C1296.35 634.578 1299.03 631.82 1300.72 628.469C1301.33 627.265 1301.76 625.979 1302 624.652C1301.63 624.7 1301.25 624.731 1300.87 624.755C1300.75 624.761 1300.63 624.767 1300.52 624.773L1300.47 624.775C1300.06 624.794 1299.65 624.694 1299.3 624.488C1298.94 624.282 1298.65 623.978 1298.47 623.614C1298.28 623.25 1298.21 622.84 1298.25 622.434C1298.3 622.029 1298.46 621.645 1298.72 621.328C1298.88 621.131 1299.04 620.934 1299.2 620.737C1299.45 620.433 1299.7 620.135 1299.95 619.831C1299.97 619.802 1300 619.772 1300.03 619.74C1300.31 619.394 1300.59 619.053 1300.87 618.707C1300.36 617.914 1299.66 617.251 1298.85 616.767C1296.02 615.126 1292.12 616.263 1290.08 618.798C1288.03 621.333 1287.64 624.889 1288.35 628.056C1289.05 630.751 1290.21 633.308 1291.78 635.618C1291.62 635.813 1291.46 636.001 1291.31 636.196C1288.51 639.768 1286.06 643.604 1284.02 647.649C1284.51 643.117 1283.92 638.534 1282.28 634.275C1280.62 630.306 1277.51 626.963 1274.77 623.531C1271.48 619.41 1264.73 621.208 1264.15 626.433C1264.14 626.484 1264.14 626.534 1264.13 626.585C1264.54 626.812 1264.94 627.054 1265.33 627.31C1265.82 627.634 1266.2 628.097 1266.42 628.639C1266.64 629.18 1266.68 629.775 1266.56 630.345C1266.43 630.915 1266.13 631.433 1265.7 631.833C1265.27 632.232 1264.73 632.493 1264.15 632.582L1264.09 632.591C1264.23 634.045 1264.49 635.486 1264.86 636.901C1265.91 640.852 1267.79 644.544 1270.35 647.745C1272.92 650.946 1276.12 653.587 1279.77 655.502C1280.01 655.624 1280.24 655.746 1280.48 655.861C1278.42 661.64 1277.13 667.66 1276.64 673.77C1276.36 677.374 1276.38 680.995 1276.69 684.596L1276.67 684.468C1275.88 680.464 1273.73 676.85 1270.57 674.238C1265.87 670.414 1259.23 669.006 1254.17 665.932C1253.63 665.59 1253 665.407 1252.36 665.405C1251.72 665.404 1251.1 665.584 1250.56 665.924C1250.02 666.264 1249.59 666.75 1249.31 667.325C1249.04 667.899 1248.95 668.539 1249.03 669.167C1249.04 669.212 1249.04 669.257 1249.05 669.302C1249.81 669.606 1250.54 669.958 1251.25 670.353C1251.66 670.581 1252.06 670.822 1252.45 671.078C1252.94 671.402 1253.32 671.865 1253.54 672.407C1253.76 672.949 1253.8 673.543 1253.68 674.113C1253.55 674.683 1253.25 675.202 1252.82 675.601C1252.39 676 1251.85 676.261 1251.27 676.35L1251.21 676.359C1251.17 676.365 1251.13 676.371 1251.09 676.377C1252.38 679.431 1254.19 682.242 1256.44 684.687C1259.22 687.647 1262.59 690.012 1266.32 691.637C1270.06 693.263 1274.1 694.114 1278.18 694.14H1278.18C1279.29 698.912 1280.9 703.557 1282.97 708H1300.09C1300.15 707.812 1300.2 707.617 1300.26 707.429C1298.67 707.527 1297.08 707.433 1295.52 707.149C1296.79 705.605 1298.06 704.049 1299.33 702.505C1299.36 702.476 1299.39 702.445 1299.41 702.413C1300.06 701.623 1300.71 700.839 1301.35 700.049L1301.35 700.048C1301.38 697.625 1301.1 695.209 1300.52 692.857L1300.52 692.857Z" fill="#0D520F"/>
<path d="M1359.23 300.16L1367.41 291.127C1361.06 290.159 1358.44 294.944 1357.37 298.731C1352.41 295.885 1347 299.615 1347 299.615L1363.37 307.818C1362.55 304.774 1361.11 302.117 1359.23 300.16Z" fill="#616161"/>
<path d="M118.229 254.16L126.414 245.127C120.056 244.159 117.443 248.944 116.374 252.731C111.407 249.885 106 253.615 106 253.615L122.375 261.818C121.549 258.774 120.111 256.117 118.229 254.16Z" fill="#616161"/>
<path d="M189.558 529.872C251.394 529.872 301.522 479.744 301.522 417.908C301.522 356.072 251.394 305.944 189.558 305.944C127.722 305.944 77.5942 356.072 77.5942 417.908C77.5942 479.744 127.722 529.872 189.558 529.872Z" fill="#0D520F"/>
<path opacity="0.2" d="M106.887 343.125C96.4437 367.555 95.0269 394.902 102.89 420.28C110.754 445.658 127.385 467.413 149.812 481.658C172.239 495.903 199 501.709 225.314 498.039C251.627 494.369 275.779 481.462 293.452 461.624C287.072 476.55 277.524 489.91 265.468 500.779C253.412 511.648 239.138 519.766 223.633 524.57C208.129 529.374 191.765 530.751 175.676 528.603C159.587 526.456 144.157 520.836 130.455 512.133C116.754 503.43 105.108 491.853 96.3249 478.202C87.5419 464.552 81.8317 449.155 79.5899 433.079C77.3481 417.003 78.6283 400.631 83.3418 385.099C88.0553 369.566 96.0894 355.244 106.887 343.125Z" fill="black"/>
<path opacity="0.8" d="M337.741 409.284L382.433 386.824L427.124 364.363L452.354 351.684C453.75 350.983 453.334 347.851 451.938 348.553L407.246 371.013L362.554 393.473L337.325 406.152C335.929 406.854 336.345 409.985 337.741 409.284Z" fill="url(#paint3_linear_448_189)"/>
<path d="M157.921 428.535C155.494 424.04 155.155 418.149 158.136 414C159.61 419.356 162.931 424.018 167.512 427.161C169.283 428.367 171.378 429.524 171.984 431.579C172.303 432.889 172.106 434.271 171.435 435.441C170.766 436.595 169.951 437.659 169.011 438.607L168.925 438.928C164.53 436.324 160.349 433.029 157.921 428.535Z" fill="#012502"/>
<path d="M573.479 506.324H569.792V735.157H573.479V506.324Z" fill="#AEAEAE"/>
<path d="M519.971 519.536C524.043 519.536 527.345 516.234 527.345 512.162C527.345 508.089 524.043 504.788 519.971 504.788C515.899 504.788 512.597 508.089 512.597 512.162C512.597 516.234 515.899 519.536 519.971 519.536Z" fill="#FDEC38"/>
<path d="M520.585 510.319C531.954 510.319 541.171 508.806 541.171 506.939C541.171 505.073 531.954 503.56 520.585 503.56C509.216 503.56 500 505.073 500 506.939C500 508.806 509.216 510.319 520.585 510.319Z" fill="#D0CDE1"/>
<path d="M573.431 506.324H569.744C569.744 500.05 567.252 494.032 562.815 489.595C558.378 485.159 552.361 482.666 546.087 482.666C539.812 482.666 533.795 485.159 529.358 489.595C524.921 494.032 522.429 500.05 522.429 506.324H518.742C518.747 499.075 521.631 492.125 526.758 487.002C531.886 481.878 538.838 479 546.087 479C553.335 479 560.287 481.878 565.415 487.002C570.542 492.125 573.426 499.075 573.431 506.324Z" fill="#AEAEAE"/>
<path d="M623.205 519.536C627.277 519.536 630.578 516.234 630.578 512.162C630.578 508.089 627.277 504.788 623.205 504.788C619.132 504.788 615.831 508.089 615.831 512.162C615.831 516.234 619.132 519.536 623.205 519.536Z" fill="#FDEC38"/>
<path d="M622.59 510.319C633.959 510.319 643.175 508.806 643.175 506.939C643.175 505.073 633.959 503.56 622.59 503.56C611.221 503.56 602.005 505.073 602.005 506.939C602.005 508.806 611.221 510.319 622.59 510.319Z" fill="#D0CDE1"/>
<path d="M569.744 506.324H573.431C573.431 503.217 574.043 500.141 575.232 497.271C576.421 494.4 578.163 491.792 580.36 489.595C582.557 487.399 585.165 485.656 588.035 484.467C590.906 483.278 593.982 482.666 597.089 482.666C600.196 482.666 603.272 483.278 606.142 484.467C609.012 485.656 611.62 487.399 613.817 489.595C616.014 491.792 617.757 494.4 618.946 497.271C620.135 500.141 620.746 503.217 620.746 506.324H624.433C624.428 499.075 621.545 492.125 616.417 487.002C611.29 481.878 604.337 479 597.089 479C589.84 479 582.888 481.878 577.761 487.002C572.633 492.125 569.75 499.075 569.744 506.324Z" fill="#AEAEAE"/>
<path d="M578.406 718.322H564.77V735.528H578.406V718.322Z" fill="#AEAEAE"/>
<path opacity="0.1" d="M513 512H520H527.5L538.5 600.5L553.5 733.5H474L513 512Z" fill="#D9D9D9"/>
<path d="M931.868 510L932.853 517.883C934.557 520.635 947.923 518.73 933.05 520.915L931.473 529L930.488 521.521C921.498 518.105 922.183 521.233 930.488 517.883L931.868 510Z" fill="#F0F0F0"/>
<path d="M1398.87 325L1399.85 332.883C1401.56 335.635 1414.92 333.73 1400.05 335.915L1398.47 344L1397.49 336.521C1388.5 333.105 1389.18 336.233 1397.49 332.883L1398.87 325Z" fill="#F0F0F0"/>
<path d="M374.868 314L375.853 321.883C377.557 324.635 390.923 322.73 376.05 324.915L374.473 333L373.488 325.521C364.498 322.105 365.183 325.233 373.488 321.883L374.868 314Z" fill="#F0F0F0"/>
<path d="M34.8676 399L35.8533 406.883C37.5573 409.635 50.9234 407.73 36.0505 409.915L34.4733 418L33.4876 410.521C24.4983 407.105 25.1835 410.233 33.4876 406.883L34.8676 399Z" fill="#F0F0F0"/>
<path d="M1016.87 662L1017.85 669.883C1019.56 672.635 1032.92 670.73 1018.05 672.915L1016.47 681L1015.49 673.521C1006.5 670.105 1007.18 673.233 1015.49 669.883L1016.87 662Z" fill="#F0F0F0"/>
</g>
<defs>
<linearGradient id="paint0_linear_448_189" x1="1128.61" y1="452.248" x2="1208.33" y2="485.129" gradientUnits="userSpaceOnUse">
<stop stop-color="white"/>
<stop offset="1" stop-color="white" stop-opacity="0.3"/>
</linearGradient>
<linearGradient id="paint1_linear_448_189" x1="1304.61" y1="482.248" x2="1384.33" y2="515.129" gradientUnits="userSpaceOnUse">
<stop stop-color="white"/>
<stop offset="1" stop-color="white" stop-opacity="0.3"/>
</linearGradient>
<linearGradient id="paint2_linear_448_189" x1="1461.61" y1="276.248" x2="1541.33" y2="309.129" gradientUnits="userSpaceOnUse">
<stop stop-color="white"/>
<stop offset="1" stop-color="white" stop-opacity="0.3"/>
</linearGradient>
<linearGradient id="paint3_linear_448_189" x1="359.613" y1="351.248" x2="439.33" y2="384.129" gradientUnits="userSpaceOnUse">
<stop stop-color="white"/>
<stop offset="1" stop-color="white" stop-opacity="0.3"/>
</linearGradient>
<clipPath id="clip0_448_189">
<rect width="1600" height="736" fill="white"/>
</clipPath>
</defs>
</svg>
